<svg width="640" height="423" viewBox="0 0 640 423" fill="none" xmlns="http://www.w3.org/2000/svg">
<g clip-path="url(#clip0)">
<path d="M210.85 411H0V412.645H210.85V411Z" fill="#3F3D56"/>
<path d="M133.089 132.389C133.699 134.599 134.24 136.706 134.694 138.517L134.411 138.632C134.058 136.953 133.608 134.78 133.089 132.389ZM116.159 78.5974L116.073 78.6517L116.154 78.5672L116.159 78.5974Z" fill="url(#paint0_linear)"/>
<path d="M95.4086 389.418C92.2248 390.571 89.833 412.655 89.833 412.655L109.631 418.173C109.631 418.173 123.517 420.486 130.114 418.173C136.712 415.861 136.487 409.444 127.043 408.417C117.599 407.391 110.883 393.656 110.883 393.656C110.883 393.656 98.5923 388.265 95.4086 389.418Z" fill="#2F2E41"/>
<path d="M72.1751 393.91C72.2231 395.679 71.9613 397.441 71.4046 399.096C69.809 404.509 69.1337 410.213 69.4141 415.909C69.4569 416.59 69.5051 417.302 69.5586 418.047C70.2435 426.903 89.2336 421.391 90.4964 420.359C91.7592 419.327 86.7508 393.91 86.7508 393.91C86.7508 393.91 71.8594 390.318 72.1751 393.91Z" fill="#2F2E41"/>
<path d="M92.9631 72.1188C92.9681 72.126 92.9718 72.1342 92.9738 72.143C93.3752 73.2538 108.288 114.512 105.591 101.019C105.511 100.618 105.457 100.21 105.431 99.7996C105.201 96.4852 106.586 92.8386 108.818 89.2163C110.24 86.9528 111.82 84.8209 113.543 82.841C114.404 81.8328 115.298 80.8487 116.202 79.8948C118.685 77.2687 121.269 74.8658 123.559 72.8615C127.674 69.2391 130.852 66.9389 130.852 66.9389C130.852 66.9389 102.011 29.001 104.055 45.3679C104.617 49.8536 106.961 54.3272 105.372 58.4808C104.329 61.1125 102.851 63.4955 101.016 65.5021C99.5677 67.1183 97.9896 68.5795 96.3021 69.867C95.5797 70.4163 94.9269 70.8752 94.3972 71.2254C93.5143 71.8109 92.9631 72.1188 92.9631 72.1188Z" fill="#FFB9B9"/>
<path d="M191.857 121.045C191.857 121.045 192.992 120.333 194.704 119.482C199.739 117.006 209.793 113.384 211.062 123.357C212.769 136.736 201.462 135.196 201.462 135.196C199.227 134.24 196.937 133.455 194.608 132.848C193.463 132.499 192.267 132.415 191.092 132.6L191.857 121.045Z" fill="#FFB9B9"/>
<path d="M190.135 133.711H193.538C195.517 130.693 194.003 119.222 194.003 119.222L191.044 119.826L190.135 133.711Z" fill="#E6E6E6"/>
<path d="M129.317 153.079L129.884 186.839L133.63 202.759C133.63 202.759 135.47 218.166 137.728 216.88C139.986 215.594 149.618 219.253 149.618 219.253L150.073 213.542L146.83 179.975L144.326 163.221C144.326 163.221 142.903 150.06 141.822 142.357C140.741 134.653 131.698 140.757 131.698 140.757L129.317 153.079Z" fill="#2F2E41"/>
<path d="M140.141 136.331C146.29 134.387 154.225 136.331 154.225 136.331L190.076 137.225C196.475 127.692 192.039 118.739 192.039 118.739C192.039 118.739 174.456 117.96 160.207 115.557C145.958 113.154 136.573 101.213 136.573 101.213L140.141 136.331Z" fill="#2F2E41"/>
<path opacity="0.1" d="M104.055 45.3685C102.011 29.0015 130.852 66.9395 130.852 66.9395C130.852 66.9395 127.674 69.2397 123.559 72.862C123.179 72.8922 122.799 72.8922 122.409 72.8922C113.585 72.8922 107.501 66.6618 104.002 58.2097C105.409 54.4485 104.687 50.3794 104.055 45.3685Z" fill="black"/>
<path d="M101.626 50.42C101.636 44.525 103.719 38.8754 107.417 34.7121C111.116 30.5488 116.129 28.2123 121.354 28.2158C126.578 28.2194 131.588 30.5627 135.283 34.7311C138.977 38.8994 141.054 44.5519 141.057 50.4469C141.06 56.3418 138.99 61.9972 135.3 66.1706C131.61 70.344 126.602 72.6943 121.378 72.705C116.153 72.7158 111.138 70.3862 107.435 66.228C103.731 62.0698 101.642 56.4231 101.626 50.5281C101.626 50.4921 101.626 50.456 101.626 50.42Z" fill="#FFB9B9"/>
<path d="M91.9038 146.021L92.9739 72.1195L104.409 78.8751L113.896 81.4108L116.298 79.829L116.47 79.7143L116.86 79.4607C116.86 79.4607 116.989 79.7747 117.235 80.3482C119.311 85.3048 129.413 109.544 129.199 111.621C128.975 113.927 136.407 143.002 136.407 143.002L132.822 170.538C132.822 170.538 139.623 189.664 137.825 196.728C136.027 203.791 86.9917 198.907 86.9917 198.907L91.9038 146.021Z" fill="#E6E6E6"/>
<path d="M111.054 83.6928L114.864 89.2109L115.48 90.8228C117.631 96.5073 118.867 102.579 119.129 108.753V115.914L119.926 173.297L124.308 182.118L125.106 171.202L123.345 109.774L120.953 95.8881L119.648 87.0918C118.947 85.5555 118.337 83.9682 117.823 82.3405C116.518 78.5552 113.157 79.5815 113.157 79.5815L111.054 83.6928Z" fill="#2F2E41"/>
<path d="M94.2847 70.9174L94.397 71.2253L95.1943 73.4349L96.0932 75.9042C97.1476 76.662 98.1302 77.54 99.0255 78.5244C102.065 81.6033 106.474 86.5539 108.818 89.2163C109.807 90.3392 110.428 91.0516 110.428 91.0516C111.589 89.8864 112.756 85.9924 113.542 82.8409C113.671 82.3399 113.783 81.8569 113.89 81.4101C114.286 79.7016 114.527 78.47 114.527 78.47C111.546 77.2686 104.59 69.5953 101.016 65.5021C99.5676 67.1183 97.9895 68.5795 96.3019 69.867C96.0986 69.227 94.2847 70.9174 94.2847 70.9174Z" fill="#E6E6E6"/>
<path d="M119.172 81.2658C121.403 82.8053 125.031 84.8097 129.055 85.0391C129.055 85.0391 137.771 90.2432 139.387 108.053C141.003 125.863 147.831 179.395 147.831 179.395C147.831 179.395 153.909 215.492 149.629 219.241L144.85 175.054C144.85 175.054 136.487 149.535 135.882 144.814C135.347 140.515 128.696 117.012 127.53 112.895C127.412 112.509 127.353 112.291 127.353 112.291L120.702 91.0703L116.86 79.4547C117.594 80.1164 118.366 80.7215 119.172 81.2658Z" fill="#2F2E41"/>
<path d="M71.4044 323.824C71.4044 323.824 78.1144 271.565 76.2951 264.514C74.4759 257.462 77.5473 205.349 77.5473 205.349L78.5586 195.575L79.1258 190.063L79.3666 187.757L80.5384 188.161C91.8477 191.878 103.464 194.281 115.207 195.333C117.809 195.533 120.424 195.297 122.965 194.633C127.61 193.438 136.589 191.971 138.156 190.715C138.156 190.715 138.691 192.339 139.36 194.995C140.901 201.135 143.224 212.871 141.436 222.869L138.702 243.088C138.702 243.088 137.627 263.693 134.095 276.021L130.97 292.835L126.871 327.108C124.848 336.241 123.384 345.52 122.489 354.879C120.996 370.419 112.472 396.198 112.472 396.198C112.472 396.198 94.3542 399.023 93.8191 392.093L100.08 338.041L105.88 260.632C105.88 260.632 99.5927 308.93 95.9809 319.332C95.9809 319.332 90.9725 378.624 89.2656 387.758C87.5587 396.892 86.4243 399.307 86.4243 399.307C86.4243 399.307 75.8403 403.678 71.062 395.588C71.062 395.588 69.6975 371.59 68.6755 362.987C67.6482 354.372 71.4044 323.824 71.4044 323.824Z" fill="#2F2E41"/>
<path d="M79.7254 206.864L87.2165 210.976L78.286 229.975C74.931 226.443 75.3269 212.388 75.3269 212.388L79.7254 206.864Z" fill="#FFB9B9"/>
<path d="M82.9468 206.865L86.3604 209.883L81.812 217.653L75.6107 220.219L75.0967 215.081L82.9468 206.865Z" fill="#E6E6E6"/>
<g opacity="0.1">
<path opacity="0.1" d="M138.162 190.787C138.144 190.761 138.133 190.73 138.13 190.697C138.033 190.768 137.933 190.832 137.83 190.89L138.162 190.787Z" fill="black"/>
</g>
<path d="M53.8003 217.52C57.8937 222.911 75.7388 223.877 75.7388 223.877L89.6457 199.148L93.3966 192.483C93.3966 192.483 97.5756 189.211 105.431 174.474C113.286 159.737 113.018 148.387 112.585 139.911C112.151 131.435 107.234 107.074 107.234 107.074C106.752 104.614 106.15 102.185 105.431 99.7996C103.724 93.7261 101.139 85.2861 99.0257 78.5244C98.6458 77.3049 98.282 76.1397 97.9341 75.053C97.292 72.9882 100.556 65.1218 100.556 65.1218C99.4056 67.7238 92.1606 72.0042 89.6403 73.7973C82.8447 78.627 73.3577 80.6072 73.3577 80.6072C58.081 83.1127 60.9009 100.923 60.9009 100.923C60.9009 100.923 60.7297 170.151 61.6715 178.435C62.6132 186.718 53.8003 217.52 53.8003 217.52Z" fill="#2F2E41"/>
<path opacity="0.1" d="M61.5643 100.917C61.5643 100.917 55.0791 132.697 53.2866 152.336C51.494 171.975 58.2361 184.49 58.2361 184.49L72.6566 220.599C77.6062 219.162 87.6765 207.317 87.6765 207.317L73.2292 162.159C73.2292 162.159 78.5854 139.356 81.935 118.353C85.2846 97.349 76.4076 87.9249 76.4076 87.9249C61.559 81.5737 61.5643 100.917 61.5643 100.917Z" fill="black"/>
<path d="M60.8795 100.917C60.8795 100.917 54.3943 132.697 52.6017 152.336C50.8092 171.975 57.5513 184.49 57.5513 184.49L71.9986 220.599C76.9481 219.162 87.0184 207.317 87.0184 207.317L72.5711 162.159C72.5711 162.159 77.9327 139.356 81.2716 118.353C84.6105 97.349 75.7281 87.9249 75.7281 87.9249C60.8795 81.5737 60.8795 100.917 60.8795 100.917Z" fill="#2F2E41"/>
<path d="M89.378 213.028L85.397 225.87L80.9611 232.734C80.9611 232.734 77.6383 235.239 76.8089 230.554C75.9795 225.87 87.2163 208.277 87.2163 208.277C88.9928 207.486 89.378 213.028 89.378 213.028Z" fill="#2F2E41"/>
<path d="M103.1 62.4617C103.1 62.4617 82.5004 30.6114 108.441 23.7248C108.441 23.7248 115.81 11.2529 124.865 17.3871C129.309 20.3292 134.379 21.8505 139.531 21.7879C143.918 21.7879 148.114 23.7248 147.351 31.4722C145.825 46.9669 137.433 44.3845 137.433 44.3845C137.433 44.3845 114.673 32.8793 113.91 45.7916C113.147 58.7039 103.1 62.4617 103.1 62.4617Z" fill="#2F2E41"/>
<path d="M345.723 10.0044C348.171 10.0044 350.156 7.76481 350.156 5.00218C350.156 2.23955 348.171 0 345.723 0C343.274 0 341.289 2.23955 341.289 5.00218C341.289 7.76481 343.274 10.0044 345.723 10.0044Z" fill="#E6E6E6"/>
<path d="M368.165 10.0044C370.613 10.0044 372.598 7.76481 372.598 5.00218C372.598 2.23955 370.613 0 368.165 0C365.716 0 363.731 2.23955 363.731 5.00218C363.731 7.76481 365.716 10.0044 368.165 10.0044Z" fill="#E6E6E6"/>
<path d="M390.607 10.0044C393.056 10.0044 395.041 7.76481 395.041 5.00218C395.041 2.23955 393.056 0 390.607 0C388.159 0 386.174 2.23955 386.174 5.00218C386.174 7.76481 388.159 10.0044 390.607 10.0044Z" fill="#E6E6E6"/>
<path d="M413.049 10.0044C415.498 10.0044 417.483 7.76481 417.483 5.00218C417.483 2.23955 415.498 0 413.049 0C410.601 0 408.616 2.23955 408.616 5.00218C408.616 7.76481 410.601 10.0044 413.049 10.0044Z" fill="#E6E6E6"/>
<path d="M435.492 10.0044C437.94 10.0044 439.925 7.76481 439.925 5.00218C439.925 2.23955 437.94 0 435.492 0C433.043 0 431.058 2.23955 431.058 5.00218C431.058 7.76481 433.043 10.0044 435.492 10.0044Z" fill="#E6E6E6"/>
<path d="M345.723 35.6432C348.171 35.6432 350.156 33.4036 350.156 30.641C350.156 27.8784 348.171 25.6388 345.723 25.6388C343.274 25.6388 341.289 27.8784 341.289 30.641C341.289 33.4036 343.274 35.6432 345.723 35.6432Z" fill="#E6E6E6"/>
<path d="M368.165 35.6432C370.613 35.6432 372.598 33.4036 372.598 30.641C372.598 27.8784 370.613 25.6388 368.165 25.6388C365.716 25.6388 363.731 27.8784 363.731 30.641C363.731 33.4036 365.716 35.6432 368.165 35.6432Z" fill="#E6E6E6"/>
<path d="M390.607 35.6432C393.056 35.6432 395.041 33.4036 395.041 30.641C395.041 27.8784 393.056 25.6388 390.607 25.6388C388.159 25.6388 386.174 27.8784 386.174 30.641C386.174 33.4036 388.159 35.6432 390.607 35.6432Z" fill="#E6E6E6"/>
<path d="M413.049 35.6432C415.498 35.6432 417.483 33.4036 417.483 30.641C417.483 27.8784 415.498 25.6388 413.049 25.6388C410.601 25.6388 408.616 27.8784 408.616 30.641C408.616 33.4036 410.601 35.6432 413.049 35.6432Z" fill="#FF9B63"/>
<path d="M435.492 35.6432C437.94 35.6432 439.925 33.4036 439.925 30.641C439.925 27.8784 437.94 25.6388 435.492 25.6388C433.043 25.6388 431.058 27.8784 431.058 30.641C431.058 33.4036 433.043 35.6432 435.492 35.6432Z" fill="#E6E6E6"/>
<path d="M480.376 35.6432C482.825 35.6432 484.81 33.4036 484.81 30.641C484.81 27.8784 482.825 25.6388 480.376 25.6388C477.928 25.6388 475.943 27.8784 475.943 30.641C475.943 33.4036 477.928 35.6432 480.376 35.6432Z" fill="#E6E6E6"/>
<path d="M345.723 61.282C348.171 61.282 350.156 59.0424 350.156 56.2798C350.156 53.5172 348.171 51.2776 345.723 51.2776C343.274 51.2776 341.289 53.5172 341.289 56.2798C341.289 59.0424 343.274 61.282 345.723 61.282Z" fill="#E6E6E6"/>
<path d="M368.165 61.282C370.613 61.282 372.598 59.0424 372.598 56.2798C372.598 53.5172 370.613 51.2776 368.165 51.2776C365.716 51.2776 363.731 53.5172 363.731 56.2798C363.731 59.0424 365.716 61.282 368.165 61.282Z" fill="#E6E6E6"/>
<path d="M390.607 61.282C393.056 61.282 395.041 59.0424 395.041 56.2798C395.041 53.5172 393.056 51.2776 390.607 51.2776C388.159 51.2776 386.174 53.5172 386.174 56.2798C386.174 59.0424 388.159 61.282 390.607 61.282Z" fill="#E6E6E6"/>
<path d="M413.049 61.282C415.498 61.282 417.483 59.0424 417.483 56.2798C417.483 53.5172 415.498 51.2776 413.049 51.2776C410.601 51.2776 408.616 53.5172 408.616 56.2798C408.616 59.0424 410.601 61.282 413.049 61.282Z" fill="#E6E6E6"/>
<path d="M435.492 61.282C437.94 61.282 439.925 59.0424 439.925 56.2798C439.925 53.5172 437.94 51.2776 435.492 51.2776C433.043 51.2776 431.058 53.5172 431.058 56.2798C431.058 59.0424 433.043 61.282 435.492 61.282Z" fill="#E6E6E6"/>
<path d="M345.723 86.9208C348.171 86.9208 350.156 84.6812 350.156 81.9186C350.156 79.156 348.171 76.9164 345.723 76.9164C343.274 76.9164 341.289 79.156 341.289 81.9186C341.289 84.6812 343.274 86.9208 345.723 86.9208Z" fill="#E6E6E6"/>
<path d="M368.165 86.9208C370.613 86.9208 372.598 84.6812 372.598 81.9186C372.598 79.156 370.613 76.9164 368.165 76.9164C365.716 76.9164 363.731 79.156 363.731 81.9186C363.731 84.6812 365.716 86.9208 368.165 86.9208Z" fill="#E6E6E6"/>
<path d="M390.607 86.9208C393.056 86.9208 395.041 84.6812 395.041 81.9186C395.041 79.156 393.056 76.9164 390.607 76.9164C388.159 76.9164 386.174 79.156 386.174 81.9186C386.174 84.6812 388.159 86.9208 390.607 86.9208Z" fill="#E6E6E6"/>
<path d="M413.049 86.9208C415.498 86.9208 417.483 84.6812 417.483 81.9186C417.483 79.156 415.498 76.9164 413.049 76.9164C410.601 76.9164 408.616 79.156 408.616 81.9186C408.616 84.6812 410.601 86.9208 413.049 86.9208Z" fill="#E6E6E6"/>
<path d="M435.492 86.9208C437.94 86.9208 439.925 84.6812 439.925 81.9186C439.925 79.156 437.94 76.9164 435.492 76.9164C433.043 76.9164 431.058 79.156 431.058 81.9186C431.058 84.6812 433.043 86.9208 435.492 86.9208Z" fill="#E6E6E6"/>
<path d="M457.934 86.9208C460.383 86.9208 462.368 84.6812 462.368 81.9186C462.368 79.156 460.383 76.9164 457.934 76.9164C455.485 76.9164 453.5 79.156 453.5 81.9186C453.5 84.6812 455.485 86.9208 457.934 86.9208Z" fill="#E6E6E6"/>
<path d="M480.376 86.9208C482.825 86.9208 484.81 84.6812 484.81 81.9186C484.81 79.156 482.825 76.9164 480.376 76.9164C477.928 76.9164 475.943 79.156 475.943 81.9186C475.943 84.6812 477.928 86.9208 480.376 86.9208Z" fill="#E6E6E6"/>
<path d="M502.818 86.9208C505.267 86.9208 507.252 84.6812 507.252 81.9186C507.252 79.156 505.267 76.9164 502.818 76.9164C500.37 76.9164 498.385 79.156 498.385 81.9186C498.385 84.6812 500.37 86.9208 502.818 86.9208Z" fill="#E6E6E6"/>
<path d="M525.261 86.9208C527.709 86.9208 529.694 84.6812 529.694 81.9186C529.694 79.156 527.709 76.9164 525.261 76.9164C522.812 76.9164 520.827 79.156 520.827 81.9186C520.827 84.6812 522.812 86.9208 525.261 86.9208Z" fill="#E6E6E6"/>
<path d="M547.703 86.9208C550.151 86.9208 552.136 84.6812 552.136 81.9186C552.136 79.156 550.151 76.9164 547.703 76.9164C545.254 76.9164 543.269 79.156 543.269 81.9186C543.269 84.6812 545.254 86.9208 547.703 86.9208Z" fill="#E6E6E6"/>
<path d="M435.492 112.56C437.94 112.56 439.925 110.32 439.925 107.557C439.925 104.795 437.94 102.555 435.492 102.555C433.043 102.555 431.058 104.795 431.058 107.557C431.058 110.32 433.043 112.56 435.492 112.56Z" fill="#E6E6E6"/>
<path d="M457.934 112.56C460.383 112.56 462.368 110.32 462.368 107.557C462.368 104.795 460.383 102.555 457.934 102.555C455.485 102.555 453.5 104.795 453.5 107.557C453.5 110.32 455.485 112.56 457.934 112.56Z" fill="#FF9B63"/>
<path d="M480.376 112.56C482.825 112.56 484.81 110.32 484.81 107.557C484.81 104.795 482.825 102.555 480.376 102.555C477.928 102.555 475.943 104.795 475.943 107.557C475.943 110.32 477.928 112.56 480.376 112.56Z" fill="#E6E6E6"/>
<path d="M502.818 112.56C505.267 112.56 507.252 110.32 507.252 107.557C507.252 104.795 505.267 102.555 502.818 102.555C500.37 102.555 498.385 104.795 498.385 107.557C498.385 110.32 500.37 112.56 502.818 112.56Z" fill="#E6E6E6"/>
<path d="M525.261 112.56C527.709 112.56 529.694 110.32 529.694 107.557C529.694 104.795 527.709 102.555 525.261 102.555C522.812 102.555 520.827 104.795 520.827 107.557C520.827 110.32 522.812 112.56 525.261 112.56Z" fill="#E6E6E6"/>
<path d="M547.703 112.56C550.151 112.56 552.136 110.32 552.136 107.557C552.136 104.795 550.151 102.555 547.703 102.555C545.254 102.555 543.269 104.795 543.269 107.557C543.269 110.32 545.254 112.56 547.703 112.56Z" fill="#E6E6E6"/>
<path d="M435.492 138.198C437.94 138.198 439.925 135.959 439.925 133.196C439.925 130.434 437.94 128.194 435.492 128.194C433.043 128.194 431.058 130.434 431.058 133.196C431.058 135.959 433.043 138.198 435.492 138.198Z" fill="#E6E6E6"/>
<path d="M457.934 138.198C460.383 138.198 462.368 135.959 462.368 133.196C462.368 130.434 460.383 128.194 457.934 128.194C455.485 128.194 453.5 130.434 453.5 133.196C453.5 135.959 455.485 138.198 457.934 138.198Z" fill="#E6E6E6"/>
<path d="M480.376 138.198C482.825 138.198 484.81 135.959 484.81 133.196C484.81 130.434 482.825 128.194 480.376 128.194C477.928 128.194 475.943 130.434 475.943 133.196C475.943 135.959 477.928 138.198 480.376 138.198Z" fill="#E6E6E6"/>
<path d="M502.818 138.198C505.267 138.198 507.252 135.959 507.252 133.196C507.252 130.434 505.267 128.194 502.818 128.194C500.37 128.194 498.385 130.434 498.385 133.196C498.385 135.959 500.37 138.198 502.818 138.198Z" fill="#E6E6E6"/>
<path d="M525.261 138.198C527.709 138.198 529.694 135.959 529.694 133.196C529.694 130.434 527.709 128.194 525.261 128.194C522.812 128.194 520.827 130.434 520.827 133.196C520.827 135.959 522.812 138.198 525.261 138.198Z" fill="#FF9B63"/>
<path d="M547.703 138.198C550.151 138.198 552.136 135.959 552.136 133.196C552.136 130.434 550.151 128.194 547.703 128.194C545.254 128.194 543.269 130.434 543.269 133.196C543.269 135.959 545.254 138.198 547.703 138.198Z" fill="#E6E6E6"/>
<path d="M435.492 163.837C437.94 163.837 439.925 161.598 439.925 158.835C439.925 156.072 437.94 153.833 435.492 153.833C433.043 153.833 431.058 156.072 431.058 158.835C431.058 161.598 433.043 163.837 435.492 163.837Z" fill="#E6E6E6"/>
<path d="M457.934 163.837C460.383 163.837 462.368 161.598 462.368 158.835C462.368 156.072 460.383 153.833 457.934 153.833C455.485 153.833 453.5 156.072 453.5 158.835C453.5 161.598 455.485 163.837 457.934 163.837Z" fill="#E6E6E6"/>
<path d="M480.376 163.837C482.825 163.837 484.81 161.598 484.81 158.835C484.81 156.072 482.825 153.833 480.376 153.833C477.928 153.833 475.943 156.072 475.943 158.835C475.943 161.598 477.928 163.837 480.376 163.837Z" fill="#E6E6E6"/>
<path d="M502.818 163.837C505.267 163.837 507.252 161.598 507.252 158.835C507.252 156.072 505.267 153.833 502.818 153.833C500.37 153.833 498.385 156.072 498.385 158.835C498.385 161.598 500.37 163.837 502.818 163.837Z" fill="#E6E6E6"/>
<path d="M525.261 163.837C527.709 163.837 529.694 161.598 529.694 158.835C529.694 156.072 527.709 153.833 525.261 153.833C522.812 153.833 520.827 156.072 520.827 158.835C520.827 161.598 522.812 163.837 525.261 163.837Z" fill="#E6E6E6"/>
<path d="M547.703 163.837C550.151 163.837 552.136 161.598 552.136 158.835C552.136 156.072 550.151 153.833 547.703 153.833C545.254 153.833 543.269 156.072 543.269 158.835C543.269 161.598 545.254 163.837 547.703 163.837Z" fill="#E6E6E6"/>
<path d="M345.723 189.476C348.171 189.476 350.156 187.236 350.156 184.474C350.156 181.711 348.171 179.472 345.723 179.472C343.274 179.472 341.289 181.711 341.289 184.474C341.289 187.236 343.274 189.476 345.723 189.476Z" fill="#E6E6E6"/>
<path d="M368.165 189.476C370.613 189.476 372.598 187.236 372.598 184.474C372.598 181.711 370.613 179.472 368.165 179.472C365.716 179.472 363.731 181.711 363.731 184.474C363.731 187.236 365.716 189.476 368.165 189.476Z" fill="#E6E6E6"/>
<path d="M390.607 189.476C393.056 189.476 395.041 187.236 395.041 184.474C395.041 181.711 393.056 179.472 390.607 179.472C388.159 179.472 386.174 181.711 386.174 184.474C386.174 187.236 388.159 189.476 390.607 189.476Z" fill="#E6E6E6"/>
<path d="M413.049 189.476C415.498 189.476 417.483 187.236 417.483 184.474C417.483 181.711 415.498 179.472 413.049 179.472C410.601 179.472 408.616 181.711 408.616 184.474C408.616 187.236 410.601 189.476 413.049 189.476Z" fill="#E6E6E6"/>
<path d="M435.492 189.476C437.94 189.476 439.925 187.236 439.925 184.474C439.925 181.711 437.94 179.472 435.492 179.472C433.043 179.472 431.058 181.711 431.058 184.474C431.058 187.236 433.043 189.476 435.492 189.476Z" fill="#E6E6E6"/>
<path d="M457.934 189.476C460.383 189.476 462.368 187.236 462.368 184.474C462.368 181.711 460.383 179.472 457.934 179.472C455.485 179.472 453.5 181.711 453.5 184.474C453.5 187.236 455.485 189.476 457.934 189.476Z" fill="#E6E6E6"/>
<path d="M480.376 189.476C482.825 189.476 484.81 187.236 484.81 184.474C484.81 181.711 482.825 179.472 480.376 179.472C477.928 179.472 475.943 181.711 475.943 184.474C475.943 187.236 477.928 189.476 480.376 189.476Z" fill="#E6E6E6"/>
<path d="M502.818 189.476C505.267 189.476 507.252 187.236 507.252 184.474C507.252 181.711 505.267 179.472 502.818 179.472C500.37 179.472 498.385 181.711 498.385 184.474C498.385 187.236 500.37 189.476 502.818 189.476Z" fill="#E6E6E6"/>
<path d="M525.261 189.476C527.709 189.476 529.694 187.236 529.694 184.474C529.694 181.711 527.709 179.472 525.261 179.472C522.812 179.472 520.827 181.711 520.827 184.474C520.827 187.236 522.812 189.476 525.261 189.476Z" fill="#E6E6E6"/>
<path d="M547.703 189.476C550.151 189.476 552.136 187.236 552.136 184.474C552.136 181.711 550.151 179.472 547.703 179.472C545.254 179.472 543.269 181.711 543.269 184.474C543.269 187.236 545.254 189.476 547.703 189.476Z" fill="#E6E6E6"/>
<path d="M350.154 210.132C350.164 207.37 348.187 205.121 345.738 205.11C343.29 205.098 341.297 207.329 341.287 210.092C341.277 212.854 343.254 215.103 345.702 215.114C348.151 215.125 350.144 212.895 350.154 210.132Z" fill="#E6E6E6"/>
<path d="M368.165 215.115C370.613 215.115 372.598 212.875 372.598 210.113C372.598 207.35 370.613 205.11 368.165 205.11C365.716 205.11 363.731 207.35 363.731 210.113C363.731 212.875 365.716 215.115 368.165 215.115Z" fill="#E6E6E6"/>
<path d="M350.154 235.771C350.164 233.008 348.187 230.76 345.738 230.748C343.29 230.737 341.297 232.968 341.287 235.73C341.277 238.493 343.254 240.741 345.702 240.753C348.151 240.764 350.144 238.533 350.154 235.771Z" fill="#E6E6E6"/>
<path d="M368.165 240.754C370.613 240.754 372.598 238.514 372.598 235.751C372.598 232.989 370.613 230.749 368.165 230.749C365.716 230.749 363.731 232.989 363.731 235.751C363.731 238.514 365.716 240.754 368.165 240.754Z" fill="#E6E6E6"/>
<path d="M413.049 240.754C415.498 240.754 417.483 238.514 417.483 235.751C417.483 232.989 415.498 230.749 413.049 230.749C410.601 230.749 408.616 232.989 408.616 235.751C408.616 238.514 410.601 240.754 413.049 240.754Z" fill="#E6E6E6"/>
<path d="M636.747 59.0158H461.056C460.193 59.0147 459.366 58.6276 458.756 57.9394C458.146 57.2512 457.803 56.3182 457.802 55.345V6.17319C457.803 5.19997 458.146 4.26692 458.756 3.57875C459.366 2.89057 460.193 2.50346 461.056 2.50232H636.747C637.609 2.50346 638.436 2.89057 639.046 3.57875C639.656 4.26692 639.999 5.19997 640 6.17319V55.345C639.999 56.3182 639.656 57.2512 639.046 57.9394C638.436 58.6276 637.609 59.0147 636.747 59.0158V59.0158ZM461.056 3.97067C460.538 3.97131 460.042 4.20356 459.676 4.61648C459.31 5.02939 459.104 5.58924 459.104 6.17319V55.345C459.104 55.9289 459.31 56.4888 459.676 56.9017C460.042 57.3146 460.538 57.5468 461.056 57.5475H636.747C637.264 57.5468 637.76 57.3146 638.126 56.9017C638.492 56.4888 638.698 55.9289 638.699 55.345V6.17319C638.698 5.58924 638.492 5.02939 638.126 4.61648C637.76 4.20356 637.264 3.97131 636.747 3.97067H461.056Z" fill="#E6E6E6"/>
<path d="M483.83 46.1765C491.377 46.1765 497.495 39.2738 497.495 30.7589C497.495 22.2439 491.377 15.3412 483.83 15.3412C476.283 15.3412 470.166 22.2439 470.166 30.7589C470.166 39.2738 476.283 46.1765 483.83 46.1765Z" fill="#FF9B63"/>
<path d="M515.39 20.4804C514.786 20.4804 514.206 20.7512 513.779 21.2331C513.352 21.715 513.112 22.3685 513.112 23.05C513.112 23.7316 513.352 24.3851 513.779 24.867C514.206 25.3489 514.786 25.6197 515.39 25.6197H575.905C576.509 25.6197 577.088 25.3489 577.516 24.867C577.943 24.3851 578.183 23.7316 578.183 23.05C578.183 22.3685 577.943 21.715 577.516 21.2331C577.088 20.7512 576.509 20.4804 575.905 20.4804H515.39Z" fill="#E6E6E6"/>
<path d="M515.39 35.8981C514.786 35.8981 514.206 36.1688 513.779 36.6507C513.352 37.1326 513.112 37.7862 513.112 38.4677C513.112 39.1492 513.352 39.8028 513.779 40.2847C514.206 40.7666 514.786 41.0373 515.39 41.0373H622.756C623.36 41.0373 623.939 40.7666 624.366 40.2847C624.793 39.8028 625.033 39.1492 625.033 38.4677C625.033 37.7862 624.793 37.1326 624.366 36.6507C623.939 36.1688 623.36 35.8981 622.756 35.8981H515.39Z" fill="#E6E6E6"/>
<path d="M410.952 158.864H235.261C234.398 158.862 233.571 158.475 232.961 157.787C232.351 157.099 232.008 156.166 232.007 155.193V106.021C232.008 105.048 232.351 104.115 232.961 103.426C233.571 102.738 234.398 102.351 235.261 102.35H410.952C411.814 102.351 412.641 102.738 413.251 103.426C413.861 104.115 414.204 105.048 414.205 106.021V155.193C414.204 156.166 413.861 157.099 413.251 157.787C412.641 158.475 411.814 158.862 410.952 158.864ZM235.261 103.818C234.743 103.819 234.247 104.051 233.881 104.464C233.515 104.877 233.309 105.437 233.309 106.021V155.193C233.309 155.777 233.515 156.336 233.881 156.749C234.247 157.162 234.743 157.395 235.261 157.395H410.952C411.469 157.395 411.965 157.162 412.331 156.749C412.697 156.336 412.903 155.777 412.904 155.193V106.021C412.903 105.437 412.697 104.877 412.331 104.464C411.965 104.051 411.469 103.819 410.952 103.818H235.261Z" fill="#3F3D56"/>
<path d="M258.036 146.024C265.583 146.024 271.7 139.122 271.7 130.607C271.7 122.092 265.583 115.189 258.036 115.189C250.489 115.189 244.371 122.092 244.371 130.607C244.371 139.122 250.489 146.024 258.036 146.024Z" fill="#FF9B63"/>
<path d="M289.595 120.328C288.991 120.328 288.412 120.599 287.984 121.081C287.557 121.563 287.317 122.216 287.317 122.898C287.317 123.579 287.557 124.233 287.984 124.715C288.412 125.197 288.991 125.467 289.595 125.467H352.713C353.317 125.467 353.897 125.197 354.324 124.715C354.751 124.233 354.991 123.579 354.991 122.898C354.991 122.216 354.751 121.563 354.324 121.081C353.897 120.599 353.317 120.328 352.713 120.328H289.595Z" fill="#E6E6E6"/>
<path d="M289.595 135.746C288.991 135.746 288.412 136.017 287.984 136.498C287.557 136.98 287.317 137.634 287.317 138.315C287.317 138.997 287.557 139.651 287.984 140.132C288.412 140.614 288.991 140.885 289.595 140.885H396.961C397.565 140.885 398.145 140.614 398.572 140.132C398.999 139.651 399.239 138.997 399.239 138.315C399.239 137.634 398.999 136.98 398.572 136.498C398.145 136.017 397.565 135.746 396.961 135.746H289.595Z" fill="#E6E6E6"/>
<path d="M569.724 266.787H394.033C393.17 266.786 392.344 266.399 391.734 265.711C391.124 265.023 390.781 264.09 390.78 263.116V213.945C390.781 212.971 391.124 212.038 391.734 211.35C392.344 210.662 393.17 210.275 394.033 210.274H569.724C570.586 210.275 571.413 210.662 572.023 211.35C572.633 212.038 572.976 212.971 572.977 213.945V263.116C572.976 264.09 572.633 265.023 572.023 265.711C571.413 266.399 570.586 266.786 569.724 266.787ZM394.033 211.742C393.516 211.743 393.019 211.975 392.653 212.388C392.287 212.801 392.082 213.361 392.081 213.945V263.116C392.082 263.7 392.287 264.26 392.653 264.673C393.019 265.086 393.516 265.318 394.033 265.319H569.724C570.241 265.318 570.738 265.086 571.104 264.673C571.469 264.26 571.675 263.7 571.676 263.116V213.945C571.675 213.361 571.469 212.801 571.104 212.388C570.738 211.975 570.241 211.743 569.724 211.742H394.033Z" fill="#E6E6E6"/>
<path d="M416.808 253.948C424.355 253.948 430.473 247.045 430.473 238.53C430.473 230.015 424.355 223.113 416.808 223.113C409.261 223.113 403.143 230.015 403.143 238.53C403.143 247.045 409.261 253.948 416.808 253.948Z" fill="#FF9B63"/>
<path d="M448.367 228.252C447.763 228.252 447.184 228.523 446.757 229.004C446.33 229.486 446.09 230.14 446.09 230.821C446.09 231.503 446.33 232.157 446.757 232.638C447.184 233.12 447.763 233.391 448.367 233.391H506.28C506.884 233.391 507.463 233.12 507.89 232.638C508.317 232.157 508.557 231.503 508.557 230.821C508.557 230.14 508.317 229.486 507.89 229.004C507.463 228.523 506.884 228.252 506.28 228.252H448.367Z" fill="#E6E6E6"/>
<path d="M448.367 243.67C447.763 243.67 447.184 243.94 446.757 244.422C446.33 244.904 446.09 245.558 446.09 246.239C446.09 246.921 446.33 247.574 446.757 248.056C447.184 248.538 447.763 248.809 448.367 248.809H555.733C556.337 248.809 556.917 248.538 557.344 248.056C557.771 247.574 558.011 246.921 558.011 246.239C558.011 245.558 557.771 244.904 557.344 244.422C556.917 243.94 556.337 243.67 555.733 243.67H448.367Z" fill="#E6E6E6"/>
</g>
<defs>
<linearGradient id="paint0_linear" x1="125.384" y1="138.632" x2="125.384" y2="78.5672" gradientUnits="userSpaceOnUse">
<stop stop-color="#808080" stop-opacity="0.25"/>
<stop offset="0.54" stop-color="#808080" stop-opacity="0.12"/>
<stop offset="1" stop-color="#808080" stop-opacity="0.1"/>
</linearGradient>
<clipPath id="clip0">
<rect width="640" height="423" fill="white"/>
</clipPath>
</defs>
</svg>
