<svg width="509" height="296" viewBox="0 0 509 296" fill="none" xmlns="http://www.w3.org/2000/svg">
<g clip-path="url(#clip0)">
<path d="M445.139 259.349C431.851 259.221 418.583 258.15 405.42 256.143C404.958 256.072 404.495 255.996 404.033 255.925L404.729 118.995C405.188 118.593 405.652 118.197 406.122 117.814C407.678 116.535 409.279 115.337 410.934 114.237C418.909 108.95 428.246 106.53 434.689 108.955L434.789 108.999C436.199 109.522 437.502 110.347 438.622 111.426C444.279 116.956 443.336 128.137 438.77 138.283C447.824 129.183 459.248 121.936 469.445 121.386C479.391 120.846 486.497 126.569 492.535 132.775C492.735 132.979 492.929 133.183 493.123 133.386C493.223 133.485 493.317 133.59 493.417 133.688C498.018 138.531 502.555 144.177 502.006 152.349C501.403 161.311 494.581 171.247 486.63 178.215C478.686 185.182 469.661 189.812 460.852 194.504C452.05 199.203 443.022 204.287 435.498 211.827C447.238 201.615 460.596 193.38 473.587 190.339C486.579 187.297 499.056 189.974 505.174 199.076C506.975 201.839 508.147 205.037 508.594 208.401C508.653 208.793 508.701 209.192 508.744 209.597C509.615 218.023 506.967 228.083 500.636 236.643C493.665 246.069 483.332 252.604 473.522 255.856C463.713 259.107 454.269 259.454 445.139 259.349Z" fill="#F2F2F2"/>
<path d="M404.471 169.761L404.484 167.143C404.956 166.311 405.423 165.476 405.885 164.637C406.183 164.117 406.47 163.592 406.762 163.066C411.583 154.381 416.207 145.641 420.635 136.847C425.066 128.062 429.293 119.232 433.316 110.357C433.409 110.122 433.574 109.93 433.782 109.815C433.991 109.7 434.229 109.669 434.456 109.727C434.486 109.736 434.514 109.751 434.539 109.77C434.751 109.894 434.838 110.171 434.658 110.574C434.162 111.663 433.666 112.758 433.159 113.846C429.067 122.744 424.771 131.605 420.271 140.427C415.773 149.242 411.076 158.008 406.181 166.724C406.079 166.907 405.972 167.09 405.871 167.274C405.404 168.105 404.938 168.93 404.471 169.761Z" fill="white"/>
<path d="M404.299 203.522L404.308 201.902C404.772 201.537 405.236 201.178 405.701 200.813C416.636 192.233 427.571 183.655 438.505 175.079C456.407 161.034 474.309 146.994 492.211 132.957C492.307 132.874 492.417 132.812 492.535 132.775C492.932 132.655 493.164 132.976 493.123 133.386C493.1 133.559 493.045 133.725 492.959 133.873C492.874 134.02 492.761 134.146 492.628 134.242C482.589 142.116 472.553 149.988 462.521 157.858C444.709 171.83 426.898 185.8 409.09 199.767C407.959 200.656 406.823 201.544 405.693 202.432C405.228 202.798 404.764 203.163 404.299 203.522Z" fill="white"/>
<path d="M412.845 239.593C410.365 239.51 407.924 239.329 405.507 239.093C405.044 239.048 404.582 239.002 404.119 238.956L404.128 237.257C404.59 237.309 405.053 237.361 405.515 237.407C409.008 237.766 412.541 238.021 416.169 238.055C426.228 238.1 436.266 237.022 446.128 234.836C456.746 232.512 467.16 229.176 477.252 224.865C487.896 220.34 498.194 214.884 508.047 208.551C508.207 208.431 508.401 208.378 508.594 208.401C509.034 208.471 509.164 209.115 508.744 209.597C508.661 209.693 508.567 209.774 508.464 209.841C507.239 210.624 506.011 211.394 504.779 212.149C494.872 218.249 484.538 223.47 473.877 227.763C463.751 231.852 453.321 234.963 442.705 237.059C432.856 239.023 422.851 239.872 412.845 239.593Z" fill="white"/>
<path d="M400.585 -7.62242e-06H62.2604C60.9718 0.00128178 59.7362 0.565126 58.825 1.56776C57.9138 2.57039 57.4014 3.92987 57.4003 5.34778V257.601C57.4014 259.019 57.9138 260.379 58.825 261.381C59.7362 262.384 60.9718 262.948 62.2604 262.949H400.585C401.288 262.949 401.982 262.781 402.62 262.457C403.258 262.133 403.825 261.661 404.281 261.073C404.319 261.026 404.355 260.977 404.387 260.925C404.677 260.535 404.912 260.099 405.083 259.631C405.328 258.988 405.453 258.298 405.451 257.601V5.34782C405.45 3.92891 404.936 2.56864 404.024 1.56588C403.112 0.563132 401.875 -7.99774e-05 400.585 -7.62242e-06ZM404.063 257.601C404.064 258.348 403.864 259.077 403.489 259.699C403.156 260.246 402.704 260.693 402.174 260.999C401.683 261.278 401.138 261.423 400.585 261.422H62.2604C61.3398 261.421 60.4572 261.018 59.8063 260.302C59.1553 259.585 58.7891 258.614 58.788 257.601V5.34782C58.7891 4.33487 59.1553 3.36376 59.8063 2.6475C60.4572 1.93123 61.3398 1.5283 62.2604 1.52707H400.585C401.507 1.52694 402.391 1.92924 403.043 2.64562C403.695 3.36199 404.062 4.33388 404.063 5.34782V257.601Z" fill="#3F3D56"/>
<path d="M404.754 21.4336H58.0929V22.9624H404.754V21.4336Z" fill="#3F3D56"/>
<path d="M69.903 16.0523C72.2051 16.0523 74.0713 13.9989 74.0713 11.4659C74.0713 8.93293 72.2051 6.87955 69.903 6.87955C67.601 6.87955 65.7348 8.93293 65.7348 11.4659C65.7348 13.9989 67.601 16.0523 69.903 16.0523Z" fill="#3F3D56"/>
<path d="M81.8868 16.0523C84.1889 16.0523 86.0551 13.9989 86.0551 11.4659C86.0551 8.93293 84.1889 6.87955 81.8868 6.87955C79.5847 6.87955 77.7185 8.93293 77.7185 11.4659C77.7185 13.9989 79.5847 16.0523 81.8868 16.0523Z" fill="#3F3D56"/>
<path d="M93.8706 16.0523C96.1727 16.0523 98.0388 13.9989 98.0388 11.4659C98.0388 8.93293 96.1727 6.87955 93.8706 6.87955C91.5685 6.87955 89.7023 8.93293 89.7023 11.4659C89.7023 13.9989 91.5685 16.0523 93.8706 16.0523Z" fill="#3F3D56"/>
<path d="M318.428 56.8215H144.528C142.607 56.8215 140.764 55.9815 139.405 54.4863C138.046 52.9912 137.282 50.9633 137.282 48.8488C137.282 46.7344 138.046 44.7065 139.405 43.2113C140.764 41.7162 142.607 40.8762 144.528 40.8762H318.428C320.35 40.8762 322.193 41.7162 323.552 43.2113C324.911 44.7065 325.674 46.7344 325.674 48.8488C325.674 50.9633 324.911 52.9912 323.552 54.4863C322.193 55.9815 320.35 56.8215 318.428 56.8215ZM144.528 42.1028C142.902 42.1028 141.343 42.8135 140.193 44.0787C139.043 45.3438 138.397 47.0597 138.397 48.8488C138.397 50.638 139.043 52.3539 140.193 53.619C141.343 54.8842 142.902 55.5949 144.528 55.5949H318.428C320.054 55.5949 321.614 54.8842 322.764 53.619C323.914 52.3539 324.559 50.638 324.559 48.8488C324.559 47.0597 323.914 45.3438 322.764 44.0787C321.614 42.8135 320.054 42.1028 318.428 42.1028H144.528Z" fill="#3F3D56"/>
<path d="M145.981 105.577H130.375C129.192 105.577 128.058 105.06 127.222 104.14C126.385 103.22 125.916 101.972 125.916 100.671C125.916 99.3696 126.385 98.1217 127.222 97.2016C128.058 96.2815 129.192 95.7646 130.375 95.7646H145.981C147.164 95.7646 148.298 96.2815 149.134 97.2016C149.97 98.1217 150.44 99.3696 150.44 100.671C150.44 101.972 149.97 103.22 149.134 104.14C148.298 105.06 147.164 105.577 145.981 105.577Z" fill="#CCCCCC"/>
<path d="M164.374 122.136H130.375C129.192 122.136 128.058 121.619 127.222 120.699C126.385 119.778 125.916 118.531 125.916 117.229C125.916 115.928 126.385 114.68 127.222 113.76C128.058 112.84 129.192 112.323 130.375 112.323H164.374C165.557 112.323 166.691 112.84 167.527 113.76C168.364 114.68 168.833 115.928 168.833 117.229C168.833 118.531 168.364 119.778 167.527 120.699C166.691 121.619 165.557 122.136 164.374 122.136Z" fill="#CCCCCC"/>
<path d="M148.768 177.944H133.161C131.979 177.944 130.845 177.427 130.009 176.507C129.172 175.587 128.703 174.339 128.703 173.038C128.703 171.736 129.172 170.489 130.009 169.569C130.845 168.648 131.979 168.131 133.161 168.131H148.768C149.95 168.131 151.085 168.648 151.921 169.569C152.757 170.489 153.227 171.736 153.227 173.038C153.227 174.339 152.757 175.587 151.921 176.507C151.085 177.427 149.95 177.944 148.768 177.944Z" fill="#CCCCCC"/>
<path d="M167.161 194.502H133.161C131.979 194.502 130.845 193.986 130.009 193.065C129.172 192.145 128.703 190.897 128.703 189.596C128.703 188.295 129.172 187.047 130.009 186.127C130.845 185.207 131.979 184.69 133.161 184.69H167.161C168.344 184.69 169.478 185.207 170.314 186.127C171.15 187.047 171.62 188.295 171.62 189.596C171.62 190.897 171.15 192.145 170.314 193.065C169.478 193.986 168.344 194.502 167.161 194.502Z" fill="#CCCCCC"/>
<path d="M251.324 176.104H235.718C234.535 176.104 233.401 175.587 232.565 174.667C231.729 173.747 231.259 172.499 231.259 171.198C231.259 169.897 231.729 168.649 232.565 167.729C233.401 166.809 234.535 166.292 235.718 166.292H251.324C252.507 166.292 253.641 166.809 254.477 167.729C255.313 168.649 255.783 169.897 255.783 171.198C255.783 172.499 255.313 173.747 254.477 174.667C253.641 175.587 252.507 176.104 251.324 176.104Z" fill="#CCCCCC"/>
<path d="M269.718 192.663H235.718C234.535 192.663 233.401 192.146 232.565 191.226C231.729 190.306 231.259 189.058 231.259 187.756C231.259 186.455 231.729 185.207 232.565 184.287C233.401 183.367 234.535 182.85 235.718 182.85H269.718C270.9 182.85 272.034 183.367 272.871 184.287C273.707 185.207 274.177 186.455 274.177 187.756C274.177 189.058 273.707 190.306 272.871 191.226C272.034 192.146 270.9 192.663 269.718 192.663Z" fill="#CCCCCC"/>
<path d="M249.652 108.643H234.046C232.863 108.643 231.729 108.127 230.893 107.206C230.057 106.286 229.587 105.038 229.587 103.737C229.587 102.436 230.057 101.188 230.893 100.268C231.729 99.3479 232.863 98.831 234.046 98.831H249.652C250.835 98.831 251.969 99.3479 252.805 100.268C253.641 101.188 254.111 102.436 254.111 103.737C254.111 105.038 253.641 106.286 252.805 107.206C251.969 108.127 250.835 108.643 249.652 108.643Z" fill="#CCCCCC"/>
<path d="M268.046 125.202H234.046C232.863 125.202 231.729 124.685 230.893 123.765C230.057 122.845 229.587 121.597 229.587 120.296C229.587 118.995 230.057 117.747 230.893 116.827C231.729 115.906 232.863 115.39 234.046 115.39H268.046C269.228 115.39 270.362 115.906 271.198 116.827C272.035 117.747 272.505 118.995 272.505 120.296C272.505 121.597 272.035 122.845 271.198 123.765C270.362 124.685 269.228 125.202 268.046 125.202Z" fill="#CCCCCC"/>
<path d="M353.881 104.964H338.274C337.092 104.964 335.958 104.447 335.121 103.527C334.285 102.607 333.815 101.359 333.815 100.058C333.815 98.7564 334.285 97.5085 335.121 96.5884C335.958 95.6683 337.092 95.1513 338.274 95.1513H353.881C355.063 95.1513 356.198 95.6683 357.034 96.5884C357.87 97.5085 358.34 98.7564 358.34 100.058C358.34 101.359 357.87 102.607 357.034 103.527C356.198 104.447 355.063 104.964 353.881 104.964Z" fill="#CCCCCC"/>
<path d="M372.274 121.522H338.274C337.092 121.522 335.958 121.005 335.121 120.085C334.285 119.165 333.815 117.917 333.815 116.616C333.815 115.315 334.285 114.067 335.121 113.147C335.958 112.227 337.092 111.71 338.274 111.71H372.274C373.457 111.71 374.591 112.227 375.427 113.147C376.263 114.067 376.733 115.315 376.733 116.616C376.733 117.917 376.263 119.165 375.427 120.085C374.591 121.005 373.457 121.522 372.274 121.522Z" fill="#CCCCCC"/>
<path d="M102.839 127.348C112.074 127.348 119.561 119.111 119.561 108.95C119.561 98.789 112.074 90.5518 102.839 90.5518C93.6047 90.5518 86.1183 98.789 86.1183 108.95C86.1183 119.111 93.6047 127.348 102.839 127.348Z" fill="#45B973"/>
<path d="M110.643 117.229H95.0363C94.593 117.229 94.168 117.035 93.8545 116.69C93.541 116.345 93.3647 115.877 93.3642 115.39V102.511C93.3647 102.023 93.541 101.555 93.8545 101.21C94.168 100.865 94.593 100.671 95.0363 100.671H99.4297C99.7155 100.67 99.9967 100.75 100.246 100.903C100.496 101.056 100.705 101.278 100.854 101.546L102.079 103.737H110.643C111.086 103.738 111.511 103.932 111.825 104.277C112.138 104.622 112.314 105.089 112.315 105.577V115.39C112.314 115.877 112.138 116.345 111.825 116.69C111.511 117.035 111.086 117.229 110.643 117.229ZM95.0363 101.898C94.8886 101.898 94.7469 101.962 94.6424 102.077C94.5379 102.192 94.4792 102.348 94.479 102.511V115.39C94.4792 115.552 94.5379 115.708 94.6424 115.823C94.7469 115.938 94.8886 116.003 95.0363 116.003H110.643C110.791 116.003 110.932 115.938 111.037 115.823C111.141 115.708 111.2 115.552 111.2 115.39V105.577C111.2 105.415 111.141 105.259 111.037 105.144C110.932 105.029 110.791 104.964 110.643 104.964H101.456L99.9046 102.189C99.855 102.1 99.7851 102.026 99.702 101.975C99.6188 101.924 99.525 101.897 99.4298 101.898H95.0363Z" fill="white"/>
<path d="M205.396 130.415C214.631 130.415 222.117 122.178 222.117 112.016C222.117 101.855 214.631 93.6181 205.396 93.6181C196.161 93.6181 188.675 101.855 188.675 112.016C188.675 122.178 196.161 130.415 205.396 130.415Z" fill="#45B973"/>
<path d="M212.642 123.669H198.15C197.707 123.668 197.282 123.474 196.968 123.129C196.655 122.785 196.479 122.317 196.478 121.829V102.204C196.479 101.716 196.655 101.249 196.968 100.904C197.282 100.559 197.707 100.365 198.15 100.364H208.651C209.032 100.365 209.401 100.508 209.698 100.77L213.689 104.299C213.885 104.471 214.042 104.689 214.151 104.937C214.259 105.186 214.315 105.458 214.314 105.733V121.829C214.313 122.317 214.137 122.785 213.824 123.129C213.51 123.474 213.085 123.668 212.642 123.669ZM198.15 101.591C198.002 101.591 197.861 101.656 197.756 101.771C197.652 101.886 197.593 102.042 197.593 102.204V121.829C197.593 121.992 197.652 122.148 197.756 122.262C197.861 122.377 198.002 122.442 198.15 122.442H212.642C212.79 122.442 212.931 122.377 213.036 122.262C213.14 122.148 213.199 121.992 213.199 121.829V105.733C213.199 105.641 213.181 105.551 213.145 105.468C213.109 105.385 213.056 105.312 212.991 105.255L209 101.726C208.901 101.639 208.778 101.591 208.651 101.591H198.15Z" fill="white"/>
<path d="M209.855 108.95H200.937C200.789 108.95 200.647 108.886 200.543 108.771C200.438 108.656 200.38 108.5 200.38 108.337C200.38 108.174 200.438 108.018 200.543 107.903C200.647 107.788 200.789 107.724 200.937 107.724H209.855C210.003 107.724 210.145 107.788 210.249 107.903C210.354 108.018 210.412 108.174 210.412 108.337C210.412 108.5 210.354 108.656 210.249 108.771C210.145 108.886 210.003 108.95 209.855 108.95Z" fill="white"/>
<path d="M209.855 112.63H200.937C200.789 112.63 200.647 112.565 200.543 112.45C200.438 112.335 200.38 112.179 200.38 112.017C200.38 111.854 200.438 111.698 200.543 111.583C200.647 111.468 200.789 111.403 200.937 111.403H209.855C210.003 111.403 210.145 111.468 210.249 111.583C210.354 111.698 210.412 111.854 210.412 112.017C210.412 112.179 210.354 112.335 210.249 112.45C210.145 112.565 210.003 112.63 209.855 112.63Z" fill="white"/>
<path d="M209.855 116.31H200.937C200.789 116.31 200.647 116.245 200.543 116.13C200.438 116.015 200.38 115.859 200.38 115.696C200.38 115.534 200.438 115.378 200.543 115.263C200.647 115.148 200.789 115.083 200.937 115.083H209.855C210.003 115.083 210.145 115.148 210.249 115.263C210.354 115.378 210.412 115.534 210.412 115.696C210.412 115.859 210.354 116.015 210.249 116.13C210.145 116.245 210.003 116.31 209.855 116.31Z" fill="white"/>
<path d="M308.51 126.735C317.745 126.735 325.231 118.498 325.231 108.337C325.231 98.1757 317.745 89.9385 308.51 89.9385C299.275 89.9385 291.789 98.1757 291.789 108.337C291.789 118.498 299.275 126.735 308.51 126.735Z" fill="#45B973"/>
<path d="M316.313 115.083H300.706C300.263 115.082 299.838 114.888 299.525 114.544C299.211 114.199 299.035 113.731 299.034 113.243V103.431C299.035 102.943 299.211 102.475 299.525 102.13C299.838 101.785 300.263 101.591 300.706 101.591H316.313C316.756 101.591 317.181 101.785 317.495 102.13C317.808 102.475 317.984 102.943 317.985 103.431V113.243C317.984 113.731 317.808 114.199 317.495 114.544C317.181 114.888 316.756 115.082 316.313 115.083ZM300.706 102.817C300.559 102.818 300.417 102.882 300.312 102.997C300.208 103.112 300.149 103.268 300.149 103.431V113.243C300.149 113.406 300.208 113.562 300.312 113.677C300.417 113.792 300.559 113.856 300.706 113.856H316.313C316.461 113.856 316.602 113.792 316.707 113.677C316.811 113.562 316.87 113.406 316.87 113.243V103.431C316.87 103.268 316.811 103.112 316.707 102.997C316.602 102.882 316.461 102.818 316.313 102.817H300.706Z" fill="white"/>
<path d="M308.51 109.955C308.196 109.955 307.889 109.859 307.623 109.677L299.296 103.951C299.171 103.864 299.082 103.727 299.049 103.569C299.016 103.41 299.042 103.244 299.12 103.106C299.198 102.968 299.323 102.87 299.467 102.834C299.611 102.797 299.762 102.825 299.887 102.911L308.215 108.637C308.303 108.697 308.405 108.73 308.51 108.73C308.614 108.73 308.716 108.697 308.805 108.637L317.132 102.911C317.257 102.825 317.409 102.797 317.552 102.834C317.696 102.87 317.821 102.968 317.899 103.106C317.978 103.244 318.003 103.41 317.97 103.569C317.937 103.727 317.848 103.864 317.723 103.951L309.396 109.677C309.13 109.859 308.823 109.955 308.51 109.955Z" fill="white"/>
<path d="M102.839 199.715C112.074 199.715 119.561 191.478 119.561 181.317C119.561 171.156 112.074 162.919 102.839 162.919C93.6047 162.919 86.1183 171.156 86.1183 181.317C86.1183 191.478 93.6047 199.715 102.839 199.715Z" fill="#45B973"/>
<path d="M110.643 188.063H95.0363C94.593 188.063 94.168 187.869 93.8545 187.524C93.541 187.179 93.3647 186.711 93.3642 186.223V176.411C93.3647 175.923 93.541 175.455 93.8545 175.11C94.168 174.766 94.593 174.572 95.0363 174.571H110.643C111.086 174.572 111.511 174.766 111.825 175.11C112.138 175.455 112.314 175.923 112.315 176.411V186.223C112.314 186.711 112.138 187.179 111.825 187.524C111.511 187.869 111.086 188.063 110.643 188.063ZM95.0363 175.798C94.8886 175.798 94.7469 175.862 94.6424 175.977C94.5379 176.092 94.4791 176.248 94.479 176.411V186.223C94.4791 186.386 94.5379 186.542 94.6424 186.657C94.7469 186.772 94.8886 186.836 95.0363 186.837H110.643C110.791 186.836 110.932 186.772 111.037 186.657C111.141 186.542 111.2 186.386 111.2 186.223V176.411C111.2 176.248 111.141 176.092 111.037 175.977C110.932 175.862 110.791 175.798 110.643 175.798H95.0363Z" fill="white"/>
<path d="M108.169 188.063H96.9526C96.7569 188.063 96.5646 188.007 96.3951 187.899C96.2256 187.791 96.0849 187.636 95.987 187.45C95.8892 187.263 95.8377 187.052 95.8377 186.837C95.8378 186.621 95.8894 186.41 95.9873 186.223L99.3658 179.784C99.4636 179.597 99.6044 179.443 99.7739 179.335C99.9433 179.227 100.136 179.171 100.331 179.171C100.527 179.171 100.719 179.227 100.889 179.335C101.058 179.443 101.199 179.597 101.297 179.784L103.479 183.943L104.743 181.533C104.841 181.347 104.982 181.192 105.151 181.084C105.321 180.977 105.513 180.92 105.708 180.92C105.904 180.92 106.096 180.977 106.266 181.084C106.435 181.192 106.576 181.347 106.674 181.533L109.135 186.223C109.233 186.41 109.284 186.621 109.284 186.837C109.284 187.052 109.233 187.264 109.135 187.45C109.037 187.636 108.896 187.791 108.727 187.899C108.557 188.007 108.365 188.063 108.169 188.063H108.169ZM108.169 186.837L105.708 182.147L103.962 185.476C103.913 185.569 103.842 185.647 103.758 185.7C103.673 185.754 103.577 185.783 103.479 185.783C103.381 185.783 103.285 185.754 103.2 185.7C103.115 185.647 103.045 185.569 102.996 185.476L100.331 180.397L96.9526 186.837H108.169Z" fill="white"/>
<path d="M108.971 179.477C109.586 179.477 110.085 178.928 110.085 178.251C110.085 177.573 109.586 177.024 108.971 177.024C108.355 177.024 107.856 177.573 107.856 178.251C107.856 178.928 108.355 179.477 108.971 179.477Z" fill="white"/>
<path d="M206.511 197.875C215.746 197.875 223.232 189.638 223.232 179.477C223.232 169.316 215.746 161.079 206.511 161.079C197.276 161.079 189.79 169.316 189.79 179.477C189.79 189.638 197.276 197.875 206.511 197.875Z" fill="#45B973"/>
<path d="M206.511 179.784C205.519 179.784 204.549 179.46 203.724 178.854C202.899 178.247 202.256 177.385 201.876 176.377C201.497 175.368 201.397 174.258 201.591 173.188C201.784 172.117 202.262 171.133 202.964 170.361C203.665 169.59 204.559 169.064 205.532 168.851C206.505 168.638 207.514 168.747 208.43 169.165C209.347 169.583 210.13 170.29 210.682 171.198C211.233 172.106 211.527 173.173 211.527 174.264C211.526 175.728 210.997 177.131 210.056 178.165C209.116 179.2 207.841 179.782 206.511 179.784ZM206.511 169.971C205.739 169.971 204.985 170.223 204.343 170.695C203.702 171.167 203.201 171.837 202.906 172.622C202.611 173.406 202.534 174.269 202.684 175.102C202.835 175.935 203.206 176.7 203.752 177.3C204.298 177.9 204.993 178.309 205.75 178.475C206.506 178.64 207.291 178.555 208.004 178.231C208.717 177.906 209.326 177.355 209.755 176.649C210.184 175.943 210.412 175.113 210.412 174.264C210.411 173.126 210 172.035 209.268 171.23C208.537 170.425 207.545 169.973 206.511 169.971Z" fill="white"/>
<path d="M210.97 190.21H202.052C201.535 190.209 201.039 189.983 200.673 189.58C200.307 189.178 200.102 188.632 200.101 188.063C200.101 186.193 200.776 184.399 201.978 183.076C203.18 181.753 204.811 181.01 206.511 181.01C208.211 181.01 209.841 181.753 211.043 183.076C212.245 184.399 212.921 186.193 212.921 188.063C212.92 188.632 212.714 189.178 212.348 189.58C211.983 189.983 211.487 190.209 210.97 190.21ZM206.511 182.237C205.107 182.239 203.761 182.853 202.768 183.945C201.776 185.038 201.217 186.518 201.216 188.063C201.216 188.307 201.304 188.541 201.461 188.713C201.618 188.886 201.83 188.983 202.052 188.983H210.97C211.191 188.983 211.404 188.886 211.561 188.713C211.717 188.541 211.806 188.307 211.806 188.063C211.804 186.518 211.246 185.038 210.253 183.945C209.26 182.853 207.915 182.239 206.511 182.237Z" fill="white"/>
<path d="M45.112 288.976H51.9454L55.196 259.975L45.1109 259.975L45.112 288.976Z" fill="#FFB8B8"/>
<path d="M65.1239 295.956L43.6479 295.958L43.6475 286.828L56.826 286.827C59.0266 286.827 61.1372 287.789 62.6933 289.501C64.2495 291.213 65.1238 293.535 65.1239 295.956L65.1239 295.956Z" fill="#2F2E41"/>
<path d="M19.4729 288.976H26.3063L29.5569 259.975L19.4718 259.975L19.4729 288.976Z" fill="#FFB8B8"/>
<path d="M39.4847 295.956L18.0088 295.958L18.0084 286.828L31.1869 286.827C33.3875 286.827 35.498 287.789 37.0542 289.501C38.6104 291.213 39.4847 293.535 39.4848 295.956L39.4847 295.956Z" fill="#2F2E41"/>
<path d="M20.3074 202.603C21.0436 202.081 21.667 201.389 22.1338 200.574C22.6005 199.759 22.8992 198.842 23.0087 197.886C23.1183 196.931 23.0362 195.96 22.768 195.044C22.4999 194.127 22.0523 193.286 21.4569 192.58L25.9562 122.324L12.9957 123.707L12.6397 192.509C11.6281 193.688 11.0449 195.234 11.0005 196.855C10.9561 198.476 11.4536 200.059 12.3988 201.303C13.344 202.547 14.6711 203.367 16.1287 203.606C17.5863 203.846 19.0731 203.489 20.3075 202.603H20.3074Z" fill="#FFB8B8"/>
<path d="M45.3157 274.369C44.7026 274.367 44.1113 274.119 43.6527 273.671C43.1941 273.223 42.8998 272.607 42.825 271.937L38.853 235.384C38.7971 234.87 38.5738 234.395 38.2244 234.047C37.875 233.699 37.423 233.502 36.952 233.493C36.4809 233.483 36.0227 233.662 35.6618 233.995C35.301 234.328 35.0619 234.794 34.9888 235.306L29.9853 270.304C29.8947 270.955 29.5947 271.548 29.14 271.976C28.6852 272.404 28.1059 272.638 27.5076 272.635H19.3978C19.0669 272.635 18.7392 272.563 18.4336 272.423C18.1281 272.283 17.8507 272.078 17.6176 271.819C17.3844 271.561 17.2001 271.254 17.0752 270.917C16.9502 270.579 16.8872 270.218 16.8897 269.854L20.7602 192.254C20.7616 191.593 20.9796 190.955 21.3742 190.457C21.7688 189.959 22.3134 189.635 22.908 189.543L53.0026 184.736C53.3602 184.679 53.7247 184.708 54.0713 184.82C54.4179 184.932 54.7383 185.126 55.0107 185.387C55.2831 185.648 55.501 185.971 55.6495 186.334C55.798 186.696 55.8735 187.089 55.8711 187.487L55.3461 271.234C55.3417 271.94 55.0916 272.617 54.6472 273.126C54.2029 273.635 53.5981 273.938 52.9573 273.971L45.4348 274.366C45.3949 274.368 45.3552 274.369 45.3157 274.369Z" fill="#2F2E41"/>
<path d="M29.7133 195.185C26.8186 195.173 23.9476 194.611 21.2269 193.523C20.7657 193.336 20.3651 193.003 20.0757 192.566C19.7862 192.128 19.6209 191.607 19.6005 191.067C19.3408 184.727 17.822 152.096 13.4 132.192C12.5405 128.288 12.7507 124.191 14.0041 120.418C15.2575 116.644 17.498 113.364 20.4432 110.989C20.6811 110.801 20.9236 110.617 21.1707 110.435C23.7282 108.562 26.6788 107.44 29.7417 107.176C32.8047 106.912 35.8781 107.514 38.6697 108.926C41.5535 110.346 44.0592 112.554 45.9484 115.341C47.8375 118.127 49.0472 121.399 49.4623 124.845L56.6733 183.751C56.7196 184.119 56.6975 184.494 56.6083 184.852C56.5191 185.211 56.3647 185.546 56.1543 185.837C55.9486 186.126 55.6917 186.366 55.3991 186.542C55.1065 186.718 54.7845 186.828 54.4524 186.863C51.9538 187.137 46.7715 188.203 40.1391 192.257C36.9497 194.201 33.3594 195.21 29.7133 195.185Z" fill="#3F3D56"/>
<path d="M20.8976 146.357L9.03079 142.817C8.38918 142.624 7.84308 142.16 7.5123 141.525C7.18152 140.89 7.09307 140.137 7.26636 139.431L11.438 122.501C11.8849 120.688 12.9261 119.121 14.3609 118.102C15.7957 117.083 17.5225 116.685 19.2083 116.984C20.8942 117.283 22.4196 118.259 23.4906 119.722C24.5615 121.186 25.1021 123.034 25.0081 124.91L24.0584 143.845C24.0378 144.256 23.9342 144.656 23.755 145.017C23.5757 145.378 23.3255 145.69 23.0225 145.931C22.7196 146.171 22.3715 146.335 22.0039 146.408C21.6362 146.482 21.2583 146.464 20.8976 146.357Z" fill="#3F3D56"/>
<path d="M34.1075 100.928C41.6681 100.928 47.7971 94.184 47.7971 85.8651C47.7971 77.5462 41.6681 70.8024 34.1075 70.8024C26.5469 70.8024 20.4178 77.5462 20.4178 85.8651C20.4178 94.184 26.5469 100.928 34.1075 100.928Z" fill="#FFB8B8"/>
<path d="M83.7157 115.459C83.6472 115.79 83.6026 116.126 83.5823 116.464L59.639 131.663L53.8193 127.976L47.6151 136.913L60.0652 146.677L87.3808 122.966C88.4949 123.42 89.7081 123.489 90.8591 123.166C92.01 122.842 93.0442 122.141 93.824 121.155C94.6038 120.169 95.0924 118.945 95.2247 117.646C95.357 116.347 95.1267 115.035 94.5646 113.883C94.0024 112.732 93.135 111.796 92.0777 111.2C91.0204 110.604 89.8233 110.377 88.6456 110.548C87.4678 110.719 86.3654 111.28 85.4847 112.157C84.6041 113.035 83.9871 114.186 83.7157 115.459V115.459Z" fill="#FFB8B8"/>
<path d="M57.6547 132.396L47.3409 139.761C46.7827 140.158 46.1039 140.296 45.4535 140.144C44.8031 139.991 44.2342 139.561 43.8715 138.948L35.1933 124.234C34.2636 122.658 33.8972 120.759 34.1648 118.903C34.4323 117.048 35.3148 115.367 36.642 114.184C37.9693 113.002 39.6474 112.403 41.3527 112.501C43.0579 112.6 44.6697 113.39 45.877 114.718L58.0631 128.13C58.3273 128.421 58.5292 128.773 58.6539 129.16C58.7786 129.548 58.823 129.961 58.7839 130.37C58.7447 130.779 58.623 131.173 58.4276 131.524C58.2323 131.874 57.9682 132.172 57.6547 132.396Z" fill="#3F3D56"/>
<path d="M24.42 97.7821C26.9739 100.775 31.7168 99.1685 32.0495 95.0793C32.0756 94.7618 32.0737 94.4423 32.0439 94.1252C31.8721 92.3138 30.921 90.6694 31.1488 88.7568C31.2004 88.2808 31.3615 87.8272 31.6171 87.4389C33.6522 84.4404 38.4294 88.7801 40.3501 86.0656C41.5278 84.4012 40.1434 81.7805 41.0472 79.9202C42.24 77.4649 45.773 78.6761 47.9886 77.3315C50.4537 75.8354 50.3063 71.6738 48.6836 69.1426C46.7046 66.0556 43.2348 64.4084 39.8083 64.171C36.3818 63.9336 32.9789 64.9527 29.7799 66.3245C26.1453 67.883 22.541 70.037 20.3042 73.5535C17.5841 77.83 17.3224 83.5793 18.6827 88.5799C19.5103 91.6218 22.3345 95.3377 24.42 97.7821Z" fill="#2F2E41"/>
<path d="M78.5895 296H0.557403C0.409578 296 0.267808 295.935 0.163281 295.82C0.0587531 295.705 3.05176e-05 295.549 3.05176e-05 295.387C3.05176e-05 295.224 0.0587531 295.068 0.163281 294.953C0.267808 294.838 0.409578 294.773 0.557403 294.773H78.5895C78.7373 294.773 78.8791 294.838 78.9836 294.953C79.0881 295.068 79.1469 295.224 79.1469 295.387C79.1469 295.549 79.0881 295.705 78.9836 295.82C78.8791 295.935 78.7373 296 78.5895 296Z" fill="#3F3D56"/>
</g>
<defs>
<clipPath id="clip0">
<rect width="509" height="296" fill="white"/>
</clipPath>
</defs>
</svg>
