<svg width="487" height="530" viewBox="0 0 487 530" fill="none" xmlns="http://www.w3.org/2000/svg">
<path d="M285.796 0H76.332V52.8286H285.796V0Z" fill="#E6E6E6"/>
<path d="M81.8279 47.1243H280.3V5.70432H81.8279V47.1243Z" fill="white"/>
<path d="M119.631 42.1943C128.028 42.1943 134.835 35.1294 134.835 26.4143C134.835 17.6993 128.028 10.6343 119.631 10.6343C111.234 10.6343 104.427 17.6993 104.427 26.4143C104.427 35.1294 111.234 42.1943 119.631 42.1943Z" fill="#FF9B63"/>
<path d="M257.702 20.2395H155.988V23.67H257.702V20.2395Z" fill="#FF9B63"/>
<path d="M257.702 29.1587H155.988V32.5891H257.702V29.1587Z" fill="#FF9B63"/>
<path d="M209.464 88.9064H0V141.735H209.464V88.9064Z" fill="#E6E6E6"/>
<path d="M5.49585 136.031H203.968V94.6107H5.49585V136.031Z" fill="white"/>
<path d="M43.2985 131.101C51.6955 131.101 58.5026 124.036 58.5026 115.321C58.5026 106.606 51.6955 99.5407 43.2985 99.5407C34.9016 99.5407 28.0945 106.606 28.0945 115.321C28.0945 124.036 34.9016 131.101 43.2985 131.101Z" fill="#E6E6E6"/>
<path d="M181.37 109.146H79.656V112.576H181.37V109.146Z" fill="#E6E6E6"/>
<path d="M181.37 118.065H79.656V121.495H181.37V118.065Z" fill="#E6E6E6"/>
<path d="M209.464 177.813H0V230.641H209.464V177.813Z" fill="#E6E6E6"/>
<path d="M5.49585 224.937H203.968V183.517H5.49585V224.937Z" fill="white"/>
<path d="M43.2985 220.007C51.6955 220.007 58.5026 212.942 58.5026 204.227C58.5026 195.512 51.6955 188.447 43.2985 188.447C34.9016 188.447 28.0945 195.512 28.0945 204.227C28.0945 212.942 34.9016 220.007 43.2985 220.007Z" fill="#E6E6E6"/>
<path d="M181.37 198.052H79.656V201.483H181.37V198.052Z" fill="#E6E6E6"/>
<path d="M181.37 206.971H79.656V210.402H181.37V206.971Z" fill="#E6E6E6"/>
<path d="M487 494.188H212.177V496.16H487V494.188Z" fill="#3F3D56"/>
<path d="M327.862 79.8119L341.383 114.356L349.704 138.105L371.546 104.64C371.546 104.64 358.025 90.6068 358.025 72.2555L327.862 79.8119Z" fill="#A0616A"/>
<path d="M287.299 446.84L281.058 479.224L298.739 494.337L306.021 446.84H287.299Z" fill="#A0616A"/>
<path d="M389.228 439.283L387.147 478.145L404.829 474.906L406.909 441.442L389.228 439.283Z" fill="#A0616A"/>
<path d="M342.943 97.6235C356.155 97.6235 366.866 86.5075 366.866 72.7952C366.866 59.0828 356.155 47.9668 342.943 47.9668C329.732 47.9668 319.021 59.0828 319.021 72.7952C319.021 86.5075 329.732 97.6235 342.943 97.6235Z" fill="#A0616A"/>
<path d="M397.548 175.887C397.548 175.887 405.869 251.451 399.628 251.451C393.388 251.451 363.225 244.974 356.985 239.577C350.744 234.179 330.982 236.338 330.982 236.338C330.982 236.338 316.421 248.213 309.14 241.736C301.86 235.259 314.341 159.694 314.341 159.694L311.22 113.276C311.22 113.276 324.742 108.958 330.982 115.435L332.886 113.093L338.294 106.465L346.584 114.356L346.677 114.723L349.704 126.23C349.704 126.23 354.135 110.599 357.265 107.339C357.479 107.106 357.738 106.922 358.025 106.799C361.145 105.72 366.629 98.1264 366.629 98.1264L378.972 104.673L379.867 105.72L405.869 113.276L397.548 175.887Z" fill="#E6E6E6"/>
<path d="M315.381 237.418L313.301 248.213C313.301 248.213 301.86 250.372 304.98 273.041L296.659 352.924L283.138 452.237L308.1 455.476L355.945 308.665L385.067 447.919H411.07L405.869 292.472C405.869 292.472 410.03 260.087 395.468 244.974C380.907 229.862 327.862 228.782 315.381 237.418Z" fill="#2F2E41"/>
<path d="M291.459 481.384C291.459 481.384 293.539 472.748 288.338 471.668C283.138 470.589 278.978 474.907 277.937 477.066C276.897 479.225 252.975 509.45 252.975 509.45C252.975 509.45 235.294 531.04 261.296 529.961C287.298 528.881 288.338 515.927 288.338 515.927C288.338 515.927 288.338 513.768 293.539 513.768C298.739 513.768 312.261 506.212 311.22 500.815C310.18 495.417 301.434 476.761 301.434 476.761C301.434 476.761 295.619 492.178 291.459 481.384Z" fill="#2F2E41"/>
<path d="M406.909 468.43C406.909 468.43 397.548 461.953 392.348 466.271C387.148 470.589 385.067 471.668 385.067 471.668L384.983 472.322C384.058 480.312 384.904 488.417 387.456 496.017C388.072 497.936 386.859 499.318 387.148 500.814C388.708 508.911 390.268 519.166 405.869 514.848C421.471 510.53 406.909 468.43 406.909 468.43Z" fill="#2F2E41"/>
<path d="M399.629 261.167C399.629 261.167 381.947 280.598 392.348 287.075C402.749 293.552 408.989 266.564 408.989 266.564L399.629 261.167Z" fill="#A0616A"/>
<path d="M284.257 58.9325C284.257 58.9325 296.526 35.4336 284.869 31.9526C273.213 28.4716 273.873 56.2168 273.873 56.2168L284.257 58.9325Z" fill="#A0616A"/>
<path d="M392.348 116.515L405.869 113.276C405.869 113.276 420.43 125.151 425.631 166.171C430.831 207.192 411.07 273.041 411.07 273.041L395.468 263.326C395.468 263.326 403.789 211.51 402.749 203.954C401.709 196.397 395.468 167.251 395.468 167.251L392.348 116.515Z" fill="#E6E6E6"/>
<path d="M324.231 46.1249L319.88 44.4827C319.88 44.4827 328.978 35.0396 341.637 35.8607L338.077 32.1656C338.077 32.1656 346.78 28.881 354.691 37.503C358.85 42.0353 363.662 47.3629 366.662 53.3643H371.322L369.377 57.4016L376.185 61.4388L369.198 60.7136C369.86 64.1992 369.632 67.8037 368.537 71.1697L366.955 75.6859C366.955 75.6859 360.625 62.5477 360.625 60.9054V65.0111C360.625 65.0111 356.274 61.316 356.274 58.8526L353.9 61.7266L352.714 57.2103L338.077 61.7266L340.45 58.0315L331.352 59.2632L334.912 54.7469C334.912 54.7469 326.302 60.9207 324.231 64.6006C322.028 68.5165 318.693 74.8648 318.693 74.8648L316.32 70.7591C316.32 70.7591 312.759 52.2835 324.231 46.1249Z" fill="#2F2E41"/>
<path d="M316.421 115.435L311.221 113.276L283.658 109.498L285.218 58.222L272.737 46.3475C272.737 46.3475 238.414 111.117 273.777 134.866C309.14 158.615 320.581 162.933 320.581 162.933L316.421 115.435Z" fill="#E6E6E6"/>
</svg>
