<svg width="41" height="80" viewBox="0 0 41 80" fill="none" xmlns="http://www.w3.org/2000/svg">
<path d="M21.448 17.2C25.3307 17.2 28.7013 17.84 31.56 19.12C34.4613 20.4 36.68 22.2347 38.216 24.624C39.752 27.0133 40.52 29.8507 40.52 33.136C40.52 36.3787 39.752 39.216 38.216 41.648C36.68 44.0373 34.4613 45.872 31.56 47.152C28.7013 48.432 25.3307 49.072 21.448 49.072H11.336V62H3.016V17.2H21.448ZM21.064 42.032C24.6907 42.032 27.4427 41.264 29.32 39.728C31.1973 38.192 32.136 35.9947 32.136 33.136C32.136 30.2773 31.1973 28.08 29.32 26.544C27.4427 25.008 24.6907 24.24 21.064 24.24H11.336V42.032H21.064Z" fill="#DF8787"/>
</svg>
