<svg width="561" height="373" viewBox="0 0 561 373" fill="none" xmlns="http://www.w3.org/2000/svg">
<g clip-path="url(#clip0)" filter="url(#filter0_d)">
<path d="M126.54 36.5624H91.274C87.8836 36.5653 84.6329 37.8281 82.2354 40.0737C79.838 42.3193 78.4898 45.3641 78.4868 48.5398V84.3521C78.0359 84.3268 77.585 84.289 77.1407 84.2386C68.7859 83.4153 60.8428 80.4221 54.207 75.5967C47.5711 70.7712 42.5064 64.3053 39.5839 56.928C36.6614 49.5507 35.9973 41.5554 37.6665 33.8434C39.3357 26.1315 43.2718 19.0097 49.031 13.281C54.7902 7.55229 62.1435 3.44449 70.2618 1.42073C78.3801 -0.603028 86.9406 -0.462255 94.9781 1.82719C103.016 4.11663 110.21 8.46369 115.751 14.3782C121.292 20.2928 124.959 27.5396 126.338 35.3017C126.412 35.7177 126.479 36.1401 126.54 36.5624Z" fill="#F2F2F2"/>
<path d="M542.867 35.3017H91.274C87.5269 35.3055 83.9345 36.7015 81.2848 39.1833C78.6352 41.6651 77.1448 45.03 77.1407 48.5398V271.697C77.1448 275.207 78.6352 278.571 81.2848 281.053C83.9345 283.535 87.5269 284.931 91.274 284.935H542.867C546.614 284.931 550.206 283.535 552.856 281.053C555.506 278.571 556.996 275.207 557 271.697V48.5398C556.996 45.03 555.506 41.6651 552.856 39.1833C550.206 36.7015 546.614 35.3055 542.867 35.3017ZM555.654 271.697C555.651 274.872 554.303 277.917 551.905 280.163C549.508 282.408 546.257 283.671 542.867 283.674H91.274C87.8836 283.671 84.6329 282.408 82.2355 280.163C79.8381 277.917 78.4898 274.872 78.4868 271.697V48.5398C78.4898 45.3641 79.8381 42.3193 82.2355 40.0737C84.6329 37.8281 87.8836 36.5653 91.274 36.5624H542.867C546.257 36.5653 549.508 37.8281 551.905 40.0737C554.303 42.3193 555.651 45.3641 555.654 48.5398V271.697Z" fill="#3F3D56"/>
<path d="M520.657 71.4667H113.483C113.305 71.4667 113.134 71.4003 113.008 71.2821C112.881 71.1639 112.81 71.0035 112.81 70.8363C112.81 70.6691 112.881 70.5088 113.008 70.3906C113.134 70.2724 113.305 70.2059 113.483 70.2059H520.657C520.836 70.2059 521.007 70.2724 521.133 70.3906C521.259 70.5088 521.33 70.6691 521.33 70.8363C521.33 71.0035 521.259 71.1639 521.133 71.2821C521.007 71.4003 520.836 71.4667 520.657 71.4667Z" fill="#3F3D56"/>
<path d="M228.569 257.828C228.39 257.828 228.219 257.762 228.093 257.644C227.967 257.525 227.896 257.365 227.896 257.198V49.8006C227.896 49.6334 227.967 49.473 228.093 49.3548C228.219 49.2366 228.39 49.1702 228.569 49.1702C228.747 49.1702 228.919 49.2366 229.045 49.3548C229.171 49.473 229.242 49.6334 229.242 49.8006V257.198C229.242 257.365 229.171 257.525 229.045 257.644C228.919 257.762 228.747 257.828 228.569 257.828Z" fill="#3F3D56"/>
<path d="M330.194 257.828C330.016 257.828 329.844 257.762 329.718 257.644C329.592 257.525 329.521 257.365 329.521 257.198V49.8006C329.521 49.6334 329.592 49.473 329.718 49.3548C329.844 49.2366 330.016 49.1702 330.194 49.1702C330.373 49.1702 330.544 49.2366 330.67 49.3548C330.796 49.473 330.867 49.6334 330.867 49.8006V257.198C330.867 257.365 330.796 257.525 330.67 257.644C330.544 257.762 330.373 257.828 330.194 257.828Z" fill="#3F3D56"/>
<path d="M431.819 257.828C431.641 257.828 431.47 257.762 431.343 257.644C431.217 257.525 431.146 257.365 431.146 257.198V49.8006C431.146 49.6334 431.217 49.473 431.343 49.3548C431.47 49.2366 431.641 49.1702 431.819 49.1702C431.998 49.1702 432.169 49.2366 432.295 49.3548C432.421 49.473 432.492 49.6334 432.492 49.8006V257.198C432.492 257.365 432.421 257.525 432.295 257.644C432.169 257.762 431.998 257.828 431.819 257.828Z" fill="#3F3D56"/>
<path d="M163.23 136.534H138.638C137.835 136.533 137.065 136.234 136.497 135.702C135.93 135.17 135.61 134.449 135.609 133.697V106.515C135.61 105.763 135.93 105.042 136.497 104.51C137.065 103.978 137.835 103.679 138.638 103.678H163.23C164.033 103.679 164.803 103.978 165.37 104.51C165.938 105.042 166.257 105.763 166.258 106.515V133.697C166.257 134.449 165.938 135.17 165.37 135.702C164.803 136.234 164.033 136.533 163.23 136.534Z" fill="#6C63FF"/>
<path d="M198.226 214.071H173.635C172.832 214.071 172.062 213.771 171.494 213.24C170.926 212.708 170.607 211.987 170.606 211.235V184.053C170.607 183.301 170.926 182.579 171.494 182.048C172.062 181.516 172.832 181.217 173.635 181.216H198.226C199.029 181.217 199.799 181.516 200.367 182.048C200.935 182.579 201.254 183.301 201.255 184.053V211.235C201.254 211.987 200.935 212.708 200.367 213.24C199.799 213.771 199.029 214.071 198.226 214.071Z" fill="#6C63FF"/>
<path d="M277.642 152.924H253.05C252.247 152.923 251.478 152.624 250.91 152.092C250.342 151.56 250.023 150.839 250.022 150.087V122.905C250.023 122.153 250.342 121.432 250.91 120.9C251.478 120.368 252.247 120.069 253.05 120.068H277.642C278.445 120.069 279.215 120.368 279.783 120.9C280.351 121.432 280.67 122.153 280.671 122.905V150.087C280.67 150.839 280.351 151.56 279.783 152.092C279.215 152.624 278.445 152.923 277.642 152.924Z" fill="#6C63FF"/>
<path d="M380.614 123.296H356.022C355.219 123.295 354.449 122.996 353.881 122.464C353.313 121.932 352.994 121.211 352.993 120.459V93.2769C352.994 92.5248 353.313 91.8038 353.881 91.272C354.449 90.7402 355.219 90.441 356.022 90.4402H380.614C381.416 90.441 382.186 90.7402 382.754 91.272C383.322 91.8038 383.641 92.5248 383.642 93.2769V120.459C383.641 121.211 383.322 121.932 382.754 122.464C382.186 122.996 381.416 123.295 380.614 123.296Z" fill="#6C63FF"/>
<path d="M475.509 123.296H450.917C450.114 123.295 449.344 122.996 448.776 122.464C448.208 121.932 447.889 121.211 447.888 120.459V93.2769C447.889 92.5248 448.208 91.8038 448.776 91.272C449.344 90.7402 450.114 90.441 450.917 90.4402H475.509C476.312 90.441 477.081 90.7402 477.649 91.272C478.217 91.8038 478.536 92.5248 478.537 93.2769V120.459C478.536 121.211 478.217 121.932 477.649 122.464C477.081 122.996 476.312 123.295 475.509 123.296Z" fill="#6C63FF"/>
<path d="M519.255 130.86H494.663C493.86 130.86 493.09 130.56 492.522 130.029C491.954 129.497 491.635 128.776 491.634 128.024V100.842C491.635 100.09 491.954 99.3684 492.522 98.8366C493.09 98.3048 493.86 98.0057 494.663 98.0049H519.255C520.057 98.0057 520.827 98.3048 521.395 98.8366C521.963 99.3684 522.282 100.09 522.283 100.842V128.024C522.282 128.776 521.963 129.497 521.395 130.029C520.827 130.56 520.057 130.86 519.255 130.86Z" fill="#E6E6E6"/>
<path d="M499.737 179.4H475.145C474.342 179.399 473.572 179.1 473.005 178.568C472.437 178.037 472.118 177.315 472.117 176.563V149.381C472.118 148.629 472.437 147.908 473.005 147.376C473.572 146.845 474.342 146.545 475.145 146.545H499.737C500.54 146.545 501.31 146.845 501.878 147.376C502.445 147.908 502.765 148.629 502.766 149.381V176.563C502.765 177.315 502.445 178.037 501.878 178.568C501.31 179.1 500.54 179.399 499.737 179.4Z" fill="#E6E6E6"/>
<path d="M416.283 169.314H391.691C390.888 169.313 390.119 169.014 389.551 168.482C388.983 167.95 388.664 167.229 388.663 166.477V139.295C388.664 138.543 388.983 137.822 389.551 137.29C390.119 136.758 390.888 136.459 391.691 136.458H416.283C417.086 136.459 417.856 136.758 418.424 137.29C418.992 137.822 419.311 138.543 419.312 139.295V166.477C419.311 167.229 418.992 167.95 418.424 168.482C417.856 169.014 417.086 169.313 416.283 169.314Z" fill="#FF6584"/>
<path d="M368.499 179.4H343.907C343.104 179.399 342.335 179.1 341.767 178.568C341.199 178.037 340.88 177.315 340.879 176.563V149.381C340.88 148.629 341.199 147.908 341.767 147.376C342.335 146.845 343.104 146.545 343.907 146.545H368.499C369.302 146.545 370.072 146.845 370.64 147.376C371.208 147.908 371.527 148.629 371.528 149.381V176.563C371.527 177.315 371.208 178.037 370.64 178.568C370.072 179.1 369.302 179.399 368.499 179.4Z" fill="#E6E6E6"/>
<path d="M265.528 222.266H240.936C240.133 222.266 239.363 221.966 238.796 221.435C238.228 220.903 237.908 220.182 237.908 219.43V192.248C237.908 191.496 238.228 190.775 238.796 190.243C239.363 189.711 240.133 189.412 240.936 189.411H265.528C266.331 189.412 267.101 189.711 267.669 190.243C268.236 190.775 268.556 191.496 268.557 192.248V219.43C268.556 220.182 268.236 220.903 267.669 221.435C267.101 221.966 266.331 222.266 265.528 222.266Z" fill="#E6E6E6"/>
<path d="M141.02 186.334H116.428C115.625 186.334 114.856 186.034 114.288 185.503C113.72 184.971 113.401 184.25 113.4 183.498V156.316C113.401 155.564 113.72 154.842 114.288 154.311C114.856 153.779 115.625 153.48 116.428 153.479H141.02C141.823 153.48 142.593 153.779 143.161 154.311C143.729 154.842 144.048 155.564 144.049 156.316V183.498C144.048 184.25 143.729 184.971 143.161 185.503C142.593 186.034 141.823 186.334 141.02 186.334Z" fill="#FF6584"/>
<path d="M210.341 136.534H185.749C184.946 136.533 184.176 136.234 183.608 135.702C183.041 135.17 182.721 134.449 182.72 133.697V106.515C182.721 105.763 183.041 105.042 183.608 104.51C184.176 103.978 184.946 103.679 185.749 103.678H210.341C211.144 103.679 211.914 103.978 212.481 104.51C213.049 105.042 213.369 105.763 213.369 106.515V133.697C213.369 134.449 213.049 135.17 212.481 135.702C211.914 136.234 211.144 136.533 210.341 136.534Z" fill="#E6E6E6"/>
<path d="M190.207 61.1475H151.845C151.131 61.1475 150.447 60.8819 149.942 60.409C149.437 59.9361 149.153 59.2947 149.153 58.626C149.153 57.9572 149.437 57.3159 149.942 56.843C150.447 56.3701 151.131 56.1044 151.845 56.1044H190.207C190.921 56.1044 191.606 56.3701 192.111 56.843C192.616 57.3159 192.899 57.9572 192.899 58.626C192.899 59.2947 192.616 59.9361 192.111 60.409C191.606 60.8819 190.921 61.1475 190.207 61.1475Z" fill="#CCCCCC"/>
<path d="M298.562 61.1475H260.201C259.487 61.1475 258.802 60.8819 258.297 60.409C257.792 59.9361 257.509 59.2947 257.509 58.626C257.509 57.9572 257.792 57.3159 258.297 56.843C258.802 56.3701 259.487 56.1044 260.201 56.1044H298.562C299.276 56.1044 299.961 56.3701 300.466 56.843C300.971 57.3159 301.254 57.9572 301.254 58.626C301.254 59.2947 300.971 59.9361 300.466 60.409C299.961 60.8819 299.276 61.1475 298.562 61.1475Z" fill="#CCCCCC"/>
<path d="M400.188 61.1475H361.826C361.112 61.1475 360.427 60.8819 359.922 60.409C359.417 59.9361 359.134 59.2947 359.134 58.626C359.134 57.9572 359.417 57.3159 359.922 56.843C360.427 56.3701 361.112 56.1044 361.826 56.1044H400.188C400.902 56.1044 401.586 56.3701 402.091 56.843C402.596 57.3159 402.88 57.9572 402.88 58.626C402.88 59.2947 402.596 59.9361 402.091 60.409C401.586 60.8819 400.902 61.1475 400.188 61.1475Z" fill="#CCCCCC"/>
<path d="M495.083 61.1475H456.721C456.007 61.1475 455.322 60.8819 454.817 60.409C454.312 59.9361 454.029 59.2947 454.029 58.626C454.029 57.9572 454.312 57.3159 454.817 56.843C455.322 56.3701 456.007 56.1044 456.721 56.1044H495.083C495.797 56.1044 496.481 56.3701 496.986 56.843C497.491 57.3159 497.775 57.9572 497.775 58.626C497.775 59.2947 497.491 59.9361 496.986 60.409C496.481 60.8819 495.797 61.1475 495.083 61.1475Z" fill="#CCCCCC"/>
<path d="M104.285 245.782C103.301 245.692 102.349 245.401 101.498 244.929C100.646 244.456 99.9158 243.815 99.3575 243.05C98.7993 242.285 98.4269 241.415 98.2667 240.5C98.1065 239.586 98.1623 238.649 98.4301 237.757L81.1788 222.716L90.3 220.548L107.264 233.436C108.834 233.957 110.146 234.999 110.95 236.365C111.755 237.731 111.997 239.326 111.629 240.848C111.262 242.37 110.312 243.713 108.958 244.622C107.605 245.532 105.942 245.944 104.285 245.782Z" fill="#FFB8B8"/>
<path d="M128.107 356.958H136.358L140.283 327.149H128.105L128.107 356.958Z" fill="#FFB8B8"/>
<path d="M152.27 364.134L126.339 364.135L126.338 354.75L142.251 354.75C144.908 354.75 147.457 355.738 149.336 357.498C151.215 359.258 152.27 361.645 152.271 364.134L152.27 364.134Z" fill="#2F2E41"/>
<path d="M71.5337 351.378L79.5076 353.366L91.4879 325.506L79.7202 322.572L71.5337 351.378Z" fill="#FFB8B8"/>
<path d="M92.9139 364.136L67.8548 357.889L70.4319 348.82L85.8091 352.654C88.3769 353.294 90.568 354.863 91.9005 357.017C93.2329 359.17 93.5974 361.731 92.9139 364.136Z" fill="#2F2E41"/>
<path d="M138.577 351.314H125.986C125.191 351.317 124.424 351.041 123.835 350.54C123.246 350.039 122.879 349.35 122.806 348.608L115.163 274.266C115.107 273.72 114.85 273.21 114.437 272.823C114.023 272.435 113.479 272.194 112.897 272.141C112.315 272.087 111.731 272.225 111.246 272.531C110.76 272.836 110.403 273.29 110.235 273.815L88.0438 343.283C87.8091 344.022 87.2791 344.647 86.5644 345.028C85.8497 345.409 85.0054 345.517 84.2077 345.329L72.4951 342.586C72.0863 342.491 71.7018 342.32 71.3636 342.085C71.0255 341.849 70.7403 341.553 70.5247 341.214C70.3091 340.875 70.1672 340.5 70.1071 340.109C70.0471 339.718 70.0702 339.32 70.1751 338.938C70.3663 338.238 89.2958 268.947 89.4611 268.235C93.7501 238.627 98.8814 230.693 101.638 226.431C101.866 226.079 102.076 225.754 102.265 225.448C102.501 225.064 103.956 221.259 104.878 218.788C104.998 218.386 105.206 218.012 105.488 217.689C105.77 217.366 106.12 217.101 106.517 216.911C118.1 211.362 131.653 215.203 135.53 216.513C136.173 216.725 136.725 217.126 137.104 217.657C148.737 234.092 143.028 329.545 141.765 348.513C141.713 349.272 141.354 349.984 140.762 350.504C140.17 351.024 139.388 351.314 138.577 351.314Z" fill="#2F2E41"/>
<path d="M106.086 163.009C115.215 163.009 122.616 156.077 122.616 147.526C122.616 138.975 115.215 132.043 106.086 132.043C96.9564 132.043 89.5557 138.975 89.5557 147.526C89.5557 156.077 96.9564 163.009 106.086 163.009Z" fill="#FFB8B8"/>
<path d="M104.334 221.794L104.215 221.686C103.993 221.484 81.9685 201.274 84.8187 182.587C86.0378 174.594 92.9422 169.487 104.786 167.816C109.137 167.211 113.575 168.097 117.284 170.312C120.993 172.526 123.724 175.92 124.976 179.87L136.686 217.368L104.334 221.794Z" fill="#CCCCCC"/>
<path d="M93.0619 236.169L77.3683 221.562C76.2952 220.557 75.5161 219.311 75.106 217.943C74.6958 216.575 74.6684 215.131 75.0264 213.75L82.6237 184.804C82.8513 183.936 83.2665 183.122 83.8437 182.411C84.4208 181.7 85.1477 181.107 85.9791 180.67C86.8106 180.233 87.7291 179.96 88.6777 179.868C89.6263 179.777 90.5849 179.869 91.494 180.139C93.2269 180.662 94.6743 181.796 95.5296 183.302C96.385 184.807 96.5812 186.565 96.0766 188.204L88.0782 213.669L101.012 226.678L93.0619 236.169Z" fill="#CCCCCC"/>
<path d="M177.237 186.319C176.822 187.16 176.215 187.906 175.459 188.504C174.703 189.101 173.816 189.537 172.861 189.779C171.906 190.021 170.906 190.064 169.932 189.905C168.957 189.746 168.031 189.389 167.22 188.858L146.269 199.029L147.195 190.389L165.768 179.623C166.81 178.405 168.292 177.588 169.934 177.326C171.576 177.063 173.264 177.374 174.678 178.2C176.091 179.025 177.133 180.307 177.604 181.804C178.076 183.3 177.945 184.906 177.237 186.319H177.237Z" fill="#FFB8B8"/>
<path d="M164.932 192.75L144.509 201.017C143.149 201.563 141.663 201.772 140.192 201.624C138.721 201.476 137.316 200.976 136.111 200.173L110.14 182.743C109.365 182.223 108.712 181.559 108.222 180.793C107.732 180.027 107.415 179.175 107.29 178.289C107.166 177.404 107.237 176.504 107.498 175.645C107.76 174.786 108.207 173.987 108.812 173.296C109.975 171.984 111.637 171.146 113.447 170.962C115.257 170.777 117.073 171.26 118.509 172.308L140.778 188.724L158.479 182.31L164.932 192.75Z" fill="#CCCCCC"/>
<path d="M108.826 152.487C110.865 150.094 114.675 149.965 117.476 148.387C121.145 146.319 122.662 141.698 121.48 137.843C120.297 133.988 116.81 130.984 112.812 129.547C108.815 128.11 104.367 128.092 100.149 128.787C93.8698 129.821 87.6875 132.566 83.8578 137.34C80.028 142.115 79.0534 149.107 82.5242 154.116C84.1194 156.419 86.582 158.319 87.2188 160.998C88.0549 164.516 85.4209 167.908 82.5991 170.357C79.3843 173.147 75.696 175.484 72.8795 178.63C70.0629 181.775 68.1848 186.072 69.47 189.997C70.5468 193.285 73.6803 195.708 77.1164 196.921C80.5525 198.134 84.2948 198.31 87.9662 198.377C91.5313 198.442 95.318 198.361 98.3212 196.561C101.536 194.633 103.253 190.976 103.38 187.403C103.507 183.829 102.232 180.328 100.523 177.131C99.5046 175.225 98.3205 173.379 97.6438 171.344C96.9671 169.309 96.8498 167 97.9336 165.127C99.0728 163.157 101.377 161.969 103.724 161.537C103.846 161.515 103.975 161.495 104.11 161.477C104.778 161.396 105.421 161.188 106.001 160.868C106.581 160.547 107.085 160.12 107.484 159.611C107.882 159.103 108.166 158.524 108.319 157.91C108.472 157.296 108.49 156.659 108.373 156.038C108.105 154.642 108.128 153.306 108.826 152.487Z" fill="#2F2E41"/>
<path d="M329.22 357.618H320.969L317.044 327.809L329.221 327.809L329.22 357.618Z" fill="#A0616A"/>
<path d="M315.075 355.41H330.988V364.795H305.056C305.056 363.562 305.315 362.342 305.819 361.203C306.322 360.065 307.06 359.03 307.991 358.159C308.921 357.287 310.026 356.596 311.241 356.124C312.457 355.653 313.76 355.41 315.075 355.41Z" fill="#2F2E41"/>
<path d="M389.088 348.864L381.583 352.075L364.789 326.488L375.866 321.749L389.088 348.864Z" fill="#A0616A"/>
<path d="M375.243 352.36L389.717 346.168L393.88 354.704L370.292 364.795C369.745 363.674 369.44 362.463 369.393 361.232C369.346 360 369.558 358.772 370.018 357.617C370.477 356.462 371.175 355.404 372.072 354.502C372.969 353.6 374.046 352.872 375.243 352.36Z" fill="#2F2E41"/>
<path d="M365.06 257.108C365.85 256.55 366.501 255.838 366.965 255.019C367.43 254.201 367.697 253.298 367.749 252.372C367.8 251.447 367.634 250.522 367.263 249.663C366.891 248.804 366.324 248.032 365.599 247.401L375.298 226.787L362.976 228.743L355.655 248.018C354.604 249.229 354.063 250.758 354.135 252.317C354.207 253.876 354.888 255.355 356.047 256.476C357.206 257.596 358.764 258.279 360.425 258.396C362.086 258.512 363.735 258.054 365.06 257.108Z" fill="#A0616A"/>
<path d="M328.694 349.758H320.812C320.047 349.756 319.312 349.484 318.752 348.996C318.192 348.508 317.849 347.841 317.791 347.127L313.493 239.609C313.461 239.197 313.525 238.784 313.682 238.398C313.838 238.011 314.083 237.662 314.398 237.373C314.714 237.085 315.093 236.864 315.509 236.727C315.925 236.591 316.368 236.54 316.807 236.581L362.394 241.115C363.133 241.183 363.819 241.502 364.323 242.013C364.827 242.523 365.114 243.19 365.128 243.885L366.083 291.312C366.088 291.57 366.142 291.824 366.241 292.064L384.94 337.486C385.085 337.836 385.153 338.211 385.142 338.587C385.131 338.963 385.039 339.333 384.874 339.675C384.708 340.018 384.472 340.326 384.178 340.583C383.884 340.839 383.538 341.038 383.162 341.167L375.174 343.924C374.48 344.163 373.717 344.157 373.028 343.906C372.339 343.654 371.772 343.176 371.434 342.56L348.462 300.722C348.337 300.494 348.245 300.252 348.19 300.001L344.266 282.292C344.152 281.778 343.847 281.319 343.404 280.998C342.962 280.676 342.412 280.512 341.853 280.536C341.294 280.56 340.762 280.769 340.352 281.127C339.943 281.485 339.683 281.968 339.619 282.489L331.703 347.244C331.619 347.936 331.265 348.575 330.71 349.039C330.155 349.502 329.438 349.759 328.694 349.758Z" fill="#2F2E41"/>
<path d="M332.619 155.541C341.748 155.541 349.149 148.609 349.149 140.058C349.149 131.507 341.748 124.575 332.619 124.575C323.49 124.575 316.089 131.507 316.089 140.058C316.089 148.609 323.49 155.541 332.619 155.541Z" fill="#A0616A"/>
<path d="M343.955 249.44C332.746 249.325 321.803 246.22 312.409 240.49L312.248 240.386L312.265 240.204L318.588 171.229C318.806 168.889 319.921 166.702 321.727 165.073C323.533 163.443 325.908 162.481 328.413 162.365C336.608 162.012 347.615 162.457 353.507 166.567C362.411 172.78 366.703 182.134 365.282 192.232C362.334 213.173 365.673 241.421 366.064 244.573L366.092 244.8L365.87 244.895C359.006 247.886 351.526 249.438 343.955 249.44Z" fill="#6C63FF"/>
<path d="M365.987 244.689C365.522 244.689 365.061 244.597 364.634 244.421C364.208 244.245 363.825 243.989 363.51 243.667L359.894 239.972C359.504 239.57 359.23 239.082 359.099 238.552C358.969 238.023 358.985 237.471 359.148 236.949L367.393 210.811L354.848 186.136C354.262 184.981 354.119 183.672 354.442 182.429C354.726 181.339 355.357 180.354 356.251 179.607C357.145 178.859 358.26 178.382 359.449 178.24C360.638 178.097 361.846 178.296 362.912 178.81C363.978 179.323 364.852 180.127 365.421 181.116L382.444 206.988C383.136 208.037 383.542 209.23 383.626 210.461C383.711 211.692 383.471 212.923 382.929 214.047L369.058 242.834C368.83 243.31 368.478 243.725 368.036 244.042C367.593 244.359 367.074 244.567 366.523 244.649C366.346 244.676 366.167 244.689 365.987 244.689Z" fill="#6C63FF"/>
<path d="M249.474 194.76C250.268 195.313 251.181 195.696 252.15 195.883C253.12 196.069 254.121 196.054 255.083 195.839C256.045 195.624 256.946 195.214 257.721 194.638C258.496 194.062 259.126 193.333 259.568 192.504L283.418 195.402L277.937 184.881L256.129 183.743C254.592 183.14 252.873 183.086 251.297 183.591C249.721 184.096 248.398 185.125 247.577 186.483C246.757 187.841 246.497 189.433 246.846 190.959C247.196 192.484 248.131 193.837 249.474 194.76V194.76Z" fill="#A0616A"/>
<path d="M302.044 200.505C301.629 200.505 301.214 200.478 300.803 200.425L263.281 195.55C262.668 195.472 262.086 195.251 261.586 194.909C261.087 194.566 260.686 194.113 260.42 193.589C260.335 193.42 260.263 193.246 260.207 193.066H260.206C260.061 192.601 260.021 192.112 260.087 191.632C260.154 191.151 260.326 190.688 260.593 190.273L263.698 185.451C264.032 184.936 264.502 184.509 265.063 184.213C265.623 183.916 266.255 183.76 266.899 183.758H266.904L299.61 183.793L324.036 163.295C325.173 162.343 326.624 161.787 328.147 161.719C329.483 161.661 330.808 161.984 331.944 162.645C333.081 163.306 333.978 164.275 334.515 165.423C335.052 166.571 335.205 167.844 334.954 169.075C334.703 170.306 334.06 171.437 333.108 172.319L308.735 197.71C307.892 198.59 306.86 199.293 305.707 199.775C304.554 200.256 303.306 200.505 302.044 200.505Z" fill="#6C63FF"/>
<path d="M334.498 153.832C336.009 150.557 337.287 146.196 334.39 143.881C332.709 142.538 330.289 142.536 328.087 142.369C321.883 141.898 315.498 139.224 312.466 134.133C309.433 129.043 311.127 121.472 316.847 119.176C320.703 117.627 325.123 118.682 329.159 119.754L341.278 122.973C344.878 123.929 348.659 124.984 351.251 127.513C355.385 131.545 355.076 138.363 351.792 143.031C348.509 147.7 343.564 152.57 337.903 154.342L334.498 153.832Z" fill="#2F2E41"/>
<path d="M501.684 365H4.8016C4.69617 365 4.59172 364.981 4.49422 364.943C4.39673 364.906 4.30812 364.851 4.23346 364.781C4.1588 364.711 4.09957 364.628 4.05915 364.537C4.01873 364.446 3.99792 364.348 3.99792 364.249C3.99792 364.151 4.01873 364.053 4.05915 363.962C4.09957 363.87 4.1588 363.788 4.23346 363.718C4.30812 363.648 4.39673 363.593 4.49422 363.555C4.59172 363.518 4.69617 363.498 4.8016 363.499H501.684C501.79 363.498 501.894 363.518 501.991 363.555C502.089 363.593 502.178 363.648 502.252 363.718C502.327 363.788 502.386 363.87 502.427 363.962C502.467 364.053 502.488 364.151 502.488 364.249C502.488 364.348 502.467 364.446 502.427 364.537C502.386 364.628 502.327 364.711 502.252 364.781C502.178 364.851 502.089 364.906 501.991 364.943C501.894 364.981 501.79 365 501.684 365Z" fill="#3F3D56"/>
</g>
<defs>
<filter id="filter0_d" x="0" y="0" width="561" height="373" filterUnits="userSpaceOnUse" color-interpolation-filters="sRGB">
<feFlood flood-opacity="0" result="BackgroundImageFix"/>
<feColorMatrix in="SourceAlpha" type="matrix" values="0 0 0 0 0 0 0 0 0 0 0 0 0 0 0 0 0 0 127 0"/>
<feOffset dy="4"/>
<feGaussianBlur stdDeviation="2"/>
<feColorMatrix type="matrix" values="0 0 0 0 0 0 0 0 0 0 0 0 0 0 0 0 0 0 0.25 0"/>
<feBlend mode="normal" in2="BackgroundImageFix" result="effect1_dropShadow"/>
<feBlend mode="normal" in="SourceGraphic" in2="effect1_dropShadow" result="shape"/>
</filter>
<clipPath id="clip0">
<rect width="553" height="365" fill="white" transform="translate(4)"/>
</clipPath>
</defs>
</svg>
